<svg xmlns="http://www.w3.org/2000/svg" width="25" height="25" fill="none"><g clip-path="url(#a)"><path fill="#3A3A3A" stroke="#F3F3F5" stroke-width=".09" d="M16.138 11.147c.761 0 1.371.22 1.815.6.389.333.653.79.781 1.335l.046.24c.037.242.052.567.047 1.018h-4.015l.003.047c.016.41.135.723.317.952.181.23.423.371.68.44.501.134 1.067-.009 1.36-.334h1.499c-.242.622-1.015 1.41-2.485 1.41-.76 0-1.443-.214-1.936-.667-.492-.453-.8-1.15-.8-2.126 0-.968.287-1.696.764-2.182.477-.485 1.148-.733 1.924-.733ZM10.35 9.456l.246.01c.555.044.983.206 1.297.435.358.262.57.614.657.987.172.749-.165 1.58-.86 1.936l-.092.047.097.035c.84.306 1.28 1.288 1.091 2.2-.094.454-.346.89-.781 1.21-.435.323-1.058.533-1.898.533H6.92V9.456h3.43Zm-2.02 5.997h1.715c.389 0 .68-.097.873-.245.194-.15.29-.351.285-.555-.01-.41-.415-.798-1.134-.798H8.33v1.598Zm7.808-3.207c-.374 0-.67.098-.887.294-.216.195-.348.484-.401.853l-.008.052h2.583l-.003-.048c-.027-.397-.174-.687-.404-.877-.23-.19-.538-.274-.88-.274Zm-7.809.199h1.837c.644 0 1.035-.388 1.041-.794a.675.675 0 0 0-.291-.553c-.198-.148-.498-.243-.906-.243H8.33v1.59Zm9.5-3v.91h-3.41v-.91h3.41Z"/></g><rect width="18.5" height="18.5" x="3.624" y="3.65" stroke="#3A3A3A" stroke-width="1.5" rx="1.25"/><defs><clipPath id="a"><path fill="#fff" d="M6.874 6.9h12v12h-12z"/></clipPath></defs></svg>