<svg xmlns="http://www.w3.org/2000/svg" width="20" height="20" fill="none"><rect width="18.5" height="18.5" x=".75" y=".75" stroke="#3A3A3A" stroke-width="1.5" rx="1.25"/><path stroke="#3A3A3A" stroke-linecap="round" d="M13 4H6a2 2 0 0 0-2 2v8a2 2 0 0 0 2 2h8a2 2 0 0 0 2-2V8"/><mask id="a" width="12.728" height="12.728" x="6.165" y="1.586" fill="#000" maskUnits="userSpaceOnUse"><path fill="#fff" d="M6.165 1.586h12.728v12.728H6.165z"/><path d="M17.178 4.12a.987.987 0 0 1-.067 1.321l-5.579 5.579-.077.062a.489.489 0 0 1-.178.07l-2.716 1.423-.123.065-.065.021a.202.202 0 0 1-.227-.226l.022-.065.065-.124 1.42-2.714a.489.489 0 0 1 .073-.18l.062-.076 5.58-5.579a.987.987 0 0 1 1.32-.067l.074.067.349.35.067.074ZM9.915 10.1l-.873 1.667 1.668-.873-.795-.795Zm.224-.476 1.046 1.046 4.532-4.532-1.046-1.046-4.532 4.532Zm6.275-5.578a.493.493 0 0 0-.697 0l-.697.698 1.046 1.046.697-.698a.494.494 0 0 0 0-.697l-.349-.349Z"/></mask><path fill="#3A3A3A" d="M17.178 4.12a.987.987 0 0 1-.067 1.321l-5.579 5.579-.077.062a.489.489 0 0 1-.178.07l-2.716 1.423-.123.065-.065.021a.202.202 0 0 1-.227-.226l.022-.065.065-.124 1.42-2.714a.489.489 0 0 1 .073-.18l.062-.076 5.58-5.579a.987.987 0 0 1 1.32-.067l.074.067.349.35.067.074ZM9.915 10.1l-.873 1.667 1.668-.873-.795-.795Zm.224-.476 1.046 1.046 4.532-4.532-1.046-1.046-4.532 4.532Zm6.275-5.578a.493.493 0 0 0-.697 0l-.697.698 1.046 1.046.697-.698a.494.494 0 0 0 0-.697l-.349-.349Z"/><path fill="#3A3A3A" d="m17.178 4.12.078-.063-.003-.003-.075.067Zm-5.646 6.9.063.078.008-.007-.071-.071Zm-.077.062.055.084.007-.006-.062-.078Zm-.178.07-.019-.098-.014.002-.013.007.046.089Zm-2.716 1.423-.046-.089.046.089Zm-.123.065.031.095.009-.003.007-.004-.047-.088Zm-.065.021.014.1.009-.002.008-.003-.031-.095Zm-.227-.226-.094-.033-.003.01-.002.008.1.015Zm.022-.065-.088-.046-.004.007-.002.007.094.032Zm.065-.124-.089-.046.089.046Zm1.42-2.714.09.047.006-.013.003-.015-.098-.019Zm.073-.18-.078-.063-.006.009.084.055Zm.062-.076-.07-.07-.007.007.077.063Zm6.9-5.646.067-.074-.004-.004-.063.078Zm.074.067.07-.07-.003-.004-.067.074Zm.349.35.074-.068-.003-.004-.071.071Zm-7.197 6.052.07-.07-.095-.097-.063.121.088.046Zm-.873 1.668-.089-.046-.148.283.283-.148-.046-.089Zm1.668-.873.046.089.12-.063-.095-.097-.071.071Zm-.571-1.27-.07-.07-.072.07.071.071.07-.07Zm1.046 1.046-.07.071.07.07.07-.07-.07-.07Zm4.532-4.532.07.071.071-.07-.07-.071-.071.07ZM14.67 5.092l.07-.07-.07-.071-.07.07.07.071Zm.348-.348-.07-.071-.07.07.07.071.07-.07Zm1.047 1.046-.071.07.07.071.071-.07-.07-.071Zm.697-1.395.07-.07-.07.07Zm.416-.274-.077.063a.887.887 0 0 1-.06 1.186l.07.071.07.07a1.087 1.087 0 0 0 .075-1.453l-.078.063Zm-.067 1.32-.07-.07-5.58 5.578.071.07.07.072 5.58-5.58-.071-.07Zm-5.579 5.579-.063-.078-.077.062.063.078.062.078.078-.062-.063-.078Zm-.077.062-.055-.083a.388.388 0 0 1-.142.055l.02.098.018.098a.587.587 0 0 0 .214-.085l-.055-.083Zm-.178.07-.046-.089-2.716 1.423.046.089.047.089 2.716-1.424-.047-.088Zm-2.716 1.423-.046-.088-.123.064.046.089.047.088.123-.065-.047-.088Zm-.123.065-.03-.095-.066.021.03.095.032.095.065-.021-.03-.095Zm-.065.021-.015-.099a.102.102 0 0 1-.113-.112l-.099-.015-.099-.015c-.029.196.145.37.34.34l-.014-.099Zm-.227-.226.095.032.022-.065-.095-.032-.094-.032-.022.065.094.032Zm.022-.065.09.046.063-.124-.088-.046-.09-.046-.063.124.088.046Zm.065-.124.088.047 1.421-2.714-.088-.047-.089-.046-1.42 2.714.088.046Zm1.42-2.714.1.019c.009-.051.027-.1.056-.143l-.083-.055-.084-.055a.588.588 0 0 0-.086.216l.098.018Zm.073-.18.077.064.063-.076-.078-.064-.077-.063-.063.077.078.063Zm.062-.076.071.071 5.579-5.579-.07-.07-.072-.071-5.578 5.579.07.07Zm5.58-5.579.07.071a.887.887 0 0 1 1.186-.06l.064-.078.063-.078a1.087 1.087 0 0 0-1.455.075l.071.07Zm1.32-.067-.068.074.075.067.067-.074.067-.074-.074-.067-.067.074Zm.074.067-.07.071.348.349.07-.07.072-.072-.35-.348-.07.07Zm.349.35-.074.066.068.075.073-.067.075-.067-.068-.075-.074.067Zm-7.197 6.052-.088-.046-.874 1.668.089.046.088.046.874-1.667-.089-.047Zm-.873 1.668.046.089 1.668-.873-.046-.089-.046-.088-1.669.872.047.089Zm1.668-.873.07-.07-.794-.795-.07.07-.072.071.795.795.07-.07Zm-.571-1.27-.07.071 1.045 1.046.071-.07.07-.071-1.045-1.046-.071.07Zm1.046 1.046.07.071 4.533-4.532-.071-.07-.07-.071-4.533 4.532.071.07Zm4.532-4.532.07-.07-1.045-1.046-.071.07-.07.071 1.045 1.046.071-.07ZM14.67 5.092l-.07-.07-4.533 4.532.07.07.072.071 4.532-4.532-.071-.07Zm1.743-1.046.071-.07a.593.593 0 0 0-.839 0l.071.07.07.07a.393.393 0 0 1 .557 0l.07-.07Zm-.697 0-.07-.07-.698.697.07.07.071.071.698-.697-.071-.07Zm-.697.698-.071.07 1.046 1.046.07-.07.071-.07-1.046-1.047-.07.07Zm1.046 1.046.07.07.698-.697-.07-.07-.072-.071-.697.697.07.07Zm.697-.698.07.071a.594.594 0 0 0 0-.839l-.07.07-.07.072a.394.394 0 0 1 0 .556l.07.07Zm0-.697.07-.07-.348-.35-.07.071-.071.07.348.35.071-.071Z" mask="url(#a)"/><mask id="b" fill="#fff"><rect width="4" height="2" x="5" y="6" rx=".2"/></mask><rect width="4" height="2" x="5" y="6" stroke="#3A3A3A" stroke-width=".6" mask="url(#b)" rx=".2"/><path stroke="#3A3A3A" stroke-linecap="round" stroke-width=".3" d="M5 9h3M5 10h2"/><path stroke="#3A3A3A" stroke-linecap="round" stroke-width=".5" d="m6 14 1.553-.776a1 1 0 0 1 .894 0l1.106.552a1 1 0 0 0 .894 0L12 13"/></svg>