<svg xmlns="http://www.w3.org/2000/svg" width="29" height="24" fill="none"><path stroke="#fff" stroke-linecap="round" stroke-linejoin="round" stroke-width="2.548" d="m3.416 3.456 8.646 6.716.003.002c.96.725 1.44 1.087 1.966 1.227.465.123.954.123 1.419 0 .527-.14 1.008-.504 1.97-1.23 0 0 5.546-4.377 8.646-6.715M2 17.726V6.66c0-1.631 0-2.447.309-3.07a2.872 2.872 0 0 1 1.237-1.273C4.15 2 4.945 2 6.53 2h16.422c1.585 0 2.377 0 2.983.317.533.28.967.725 1.238 1.273.309.622.309 1.437.309 3.065v11.076c0 1.628 0 2.442-.309 3.064a2.877 2.877 0 0 1-1.238 1.273c-.605.317-1.397.317-2.98.317H6.526c-1.582 0-2.374 0-2.98-.317a2.874 2.874 0 0 1-1.236-1.273C2 20.172 2 19.357 2 17.726Z"/></svg>