<svg xmlns="http://www.w3.org/2000/svg" width="25" height="25" fill="none"><path fill="#3A3A3A" fill-rule="evenodd" d="M17.893 9.86a3.736 3.736 0 0 0-.336-2.98.5.5 0 0 0-.433-.25 3.734 3.734 0 0 0-3 1.5h-1.5a3.734 3.734 0 0 0-3-1.5.5.5 0 0 0-.433.25 3.736 3.736 0 0 0-.336 2.98 3.634 3.634 0 0 0-.481 1.77v.5a3.504 3.504 0 0 0 3.027 3.467 2.488 2.488 0 0 0-.527 1.534v.5h-1.5a1.5 1.5 0 0 1-1.5-1.5 2.5 2.5 0 0 0-2.5-2.5.5.5 0 0 0 0 1 1.5 1.5 0 0 1 1.5 1.5 2.5 2.5 0 0 0 2.5 2.5h1.5v1a.5.5 0 1 0 1 0v-2.5a1.5 1.5 0 0 1 3 0v2.5a.5.5 0 1 0 1 0v-2.5c0-.556-.185-1.096-.527-1.534a3.504 3.504 0 0 0 3.027-3.466v-.5a3.634 3.634 0 0 0-.48-1.77Zm-.519 2.27a2.5 2.5 0 0 1-2.5 2.5h-3a2.5 2.5 0 0 1-2.5-2.5v-.5c.006-.5.156-.987.431-1.404a.5.5 0 0 0 .069-.481 2.738 2.738 0 0 1 .05-2.099c.828.09 1.572.55 2.02 1.254a.5.5 0 0 0 .419.23h2.022a.5.5 0 0 0 .42-.23 2.742 2.742 0 0 1 2.02-1.254c.295.666.313 1.42.049 2.099a.506.506 0 0 0 .063.478c.278.417.43.906.437 1.408v.5Z" clip-rule="evenodd"/><rect width="18.5" height="18.5" x="3.624" y="3.65" stroke="#3A3A3A" stroke-width="1.5" rx="1.25"/></svg>