<svg xmlns="http://www.w3.org/2000/svg" width="25" height="25" fill="none"><g clip-path="url(#a)"><path fill="#3A3A3A" fill-rule="evenodd" d="M21.124 3.15h-16.5a1.5 1.5 0 0 0-1.5 1.5v16.5a1.5 1.5 0 0 0 1.5 1.5h16.5a1.5 1.5 0 0 0 1.5-1.5V4.65a1.5 1.5 0 0 0-1.5-1.5Zm0 18h-16.5V4.65h16.5v16.5ZM9.874 11.4v6a.75.75 0 0 1-1.5 0v-6a.75.75 0 0 1 1.5 0Zm8.25 2.625V17.4a.75.75 0 0 1-1.5 0v-3.375a1.875 1.875 0 1 0-3.75 0V17.4a.75.75 0 0 1-1.5 0v-6a.75.75 0 0 1 1.48-.167 3.375 3.375 0 0 1 5.27 2.792Zm-7.875-5.25a1.125 1.125 0 1 1-2.25 0 1.125 1.125 0 0 1 2.25 0Z" clip-rule="evenodd"/></g><defs><clipPath id="a"><path fill="#fff" d="M.874.9h24v24h-24z"/></clipPath></defs></svg>