<svg xmlns="http://www.w3.org/2000/svg" width="29" height="29" fill="none"><path fill="#fff" d="M15.316 0c.073.012.145.048.217.048 1.013.06 2.001.254 2.965.543 2.904.88 5.29 2.519 7.134 4.929a13.51 13.51 0 0 1 2.687 6.35c.06.398.108.783.157 1.18v1.676c-.012.084-.036.18-.048.265-.12.771-.194 1.555-.374 2.302-.868 3.41-2.784 6.121-5.688 8.098-2.928 2-6.194 2.723-9.713 2.301-1.65-.192-3.217-.699-4.687-1.482a.656.656 0 0 0-.58-.036c-1.373.446-2.747.88-4.12 1.313-1.097.35-2.181.711-3.266 1.06.024-.132.036-.276.084-.397.747-2.229 1.506-4.458 2.266-6.675a.774.774 0 0 0-.06-.724C.567 17.726.048 14.509.735 11.135c.675-3.326 2.398-6.038 5.06-8.147A13.565 13.565 0 0 1 12.413.156c.398-.06.783-.108 1.18-.156h1.724Zm3.35 2.988c-2.012-.77-4.085-.952-6.206-.602-1.699.277-3.253.928-4.675 1.892A11.588 11.588 0 0 0 4.23 8.134c-1.385 2.41-1.818 5.001-1.373 7.724.278 1.711.94 3.266 1.94 4.688.096.145.12.266.06.434-.373 1.073-.735 2.158-1.096 3.23-.097.277-.18.554-.29.867.109-.024.169-.036.23-.06 1.3-.41 2.59-.82 3.88-1.242.277-.096.494-.084.747.073 2.507 1.506 5.206 2.05 8.086 1.567 2.989-.494 5.435-1.965 7.314-4.339 1.88-2.374 2.7-5.097 2.471-8.122-.169-2.18-.916-4.145-2.205-5.904-1.374-1.88-3.158-3.23-5.327-4.062ZM8.953 7.845c.35-.29.735-.326 1.205-.278l.025.025c.602-.169.88.216 1.085.759.277.735.59 1.459.915 2.17.192.421.145.77-.12 1.12-.23.3-.458.578-.711.855-.205.217-.217.434-.073.688.976 1.602 2.254 2.892 3.965 3.699a8 8 0 0 0 .735.325c.337.145.518.097.76-.192.325-.398.65-.808.988-1.205.265-.326.397-.386.758-.217.952.434 1.892.89 2.844 1.337.193.096.241.253.241.458.012 1.614-.88 2.495-2.53 2.953-.675.193-1.338.095-2-.11-1.23-.385-2.459-.783-3.567-1.458-1.7-1.036-3.038-2.445-4.195-4.06-.578-.795-1.12-1.615-1.433-2.555-.543-1.578-.097-3.29 1.108-4.314Z"/></svg>