<svg xmlns="http://www.w3.org/2000/svg" width="1066" height="444" fill="none"><path fill="#F75705" d="M0 .539h438.001v438H0v-438Z"/><path fill="#3A3A3A" d="M34.067 322.342V114.901h28.427v207.441H34.067Zm61.988 0V114.901h45.073c15.366 0 27.488 2.391 36.366 7.171 9.049 4.61 15.452 11.61 19.208 21 3.927 9.391 5.89 21.086 5.89 35.086v76.317c0 14.683-1.963 27.061-5.89 37.135-3.756 10.073-9.988 17.756-18.695 23.049-8.537 5.122-20.062 7.683-34.574 7.683H96.055Zm28.939-20.744h16.39c10.586 0 18.098-2.049 22.537-6.147 4.439-4.097 7.086-10.073 7.939-17.927 1.025-7.853 1.537-17.329 1.537-28.427v-67.354c0-10.756-.683-19.463-2.049-26.122-1.366-6.658-4.354-11.524-8.963-14.597-4.61-3.074-11.866-4.61-21.769-4.61h-15.622v165.184Zm155.028 23.048c-11.951 0-21.939-2.561-29.964-7.683-7.853-5.122-13.829-12.207-17.927-21.256-4.097-9.049-6.487-19.549-7.17-31.5l25.61-6.915c.512 7.342 1.622 14.427 3.329 21.257 1.878 6.829 4.866 12.463 8.963 16.902 4.098 4.268 9.817 6.403 17.159 6.403 7.512 0 13.146-2.049 16.902-6.147 3.927-4.268 5.891-10.329 5.891-18.183 0-9.39-2.134-16.902-6.403-22.536-4.268-5.805-9.646-11.61-16.134-17.415l-34.829-30.732c-6.83-5.976-11.866-12.464-15.11-19.464-3.244-7.17-4.866-15.963-4.866-26.378 0-15.195 4.354-26.976 13.061-35.341 8.707-8.366 20.573-12.549 35.598-12.549 8.195 0 15.366 1.109 21.512 3.329 6.317 2.049 11.524 5.293 15.622 9.732 4.268 4.439 7.598 10.073 9.988 16.902 2.561 6.659 4.268 14.513 5.122 23.561l-24.586 6.659c-.512-6.829-1.536-13.061-3.073-18.695-1.536-5.805-4.268-10.415-8.195-13.83-3.756-3.585-9.22-5.378-16.39-5.378-7.171 0-12.805 1.964-16.903 5.891-3.927 3.756-5.89 9.39-5.89 16.902 0 6.317 1.024 11.525 3.073 15.622 2.22 4.098 5.72 8.281 10.5 12.549l35.086 30.732c7.853 6.829 14.768 15.024 20.744 24.585 5.975 9.391 8.963 20.574 8.963 33.549 0 10.244-2.134 19.122-6.402 26.635-4.269 7.341-10.159 12.975-17.671 16.902-7.342 3.927-15.878 5.89-25.61 5.89Zm68.546-2.304v-30.476h27.403v30.476h-27.403Z"/><path fill="#fff" d="M399.672 322.342V114.901h45.074c15.366 0 27.488 2.391 36.366 7.171 9.048 4.61 15.451 11.61 19.207 21 3.927 9.391 5.89 21.086 5.89 35.086v76.317c0 14.683-1.963 27.061-5.89 37.135-3.756 10.073-9.988 17.756-18.695 23.049-8.537 5.122-20.061 7.683-34.574 7.683h-47.378Zm28.939-20.744h16.391c10.585 0 18.097-2.049 22.536-6.147 4.439-4.097 7.086-10.073 7.939-17.927 1.025-7.853 1.537-17.329 1.537-28.427v-67.354c0-10.756-.683-19.463-2.049-26.122-1.366-6.658-4.353-11.524-8.963-14.597-4.61-3.074-11.866-4.61-21.769-4.61h-15.622v165.184Zm106.113 20.744V114.901h80.415v21.513h-51.475v68.634h41.744v20.488h-41.744v76.062h51.988v20.744h-80.928Zm153.206 2.304c-11.952 0-21.94-2.561-29.964-7.683-7.854-5.122-13.829-12.207-17.927-21.256-4.098-9.049-6.488-19.549-7.171-31.5l25.61-6.915c.512 7.342 1.622 14.427 3.329 21.257 1.879 6.829 4.866 12.463 8.964 16.902 4.098 4.268 9.817 6.403 17.159 6.403 7.512 0 13.146-2.049 16.902-6.147 3.927-4.268 5.89-10.329 5.89-18.183 0-9.39-2.134-16.902-6.402-22.536-4.268-5.805-9.646-11.61-16.134-17.415l-34.83-30.732c-6.829-5.976-11.866-12.464-15.11-19.464-3.244-7.17-4.866-15.963-4.866-26.378 0-15.195 4.354-26.976 13.062-35.341 8.707-8.366 20.573-12.549 35.597-12.549 8.195 0 15.366 1.109 21.513 3.329 6.317 2.049 11.524 5.293 15.622 9.732 4.268 4.439 7.597 10.073 9.987 16.902 2.561 6.659 4.269 14.513 5.122 23.561l-24.585 6.659c-.512-6.829-1.537-13.061-3.073-18.695-1.537-5.805-4.269-10.415-8.195-13.83-3.756-3.585-9.22-5.378-16.391-5.378-7.17 0-12.805 1.964-16.902 5.891-3.927 3.756-5.891 9.39-5.891 16.902 0 6.317 1.025 11.525 3.074 15.622 2.219 4.098 5.719 8.281 10.5 12.549l35.085 30.732c7.854 6.829 14.769 15.024 20.744 24.585 5.976 9.391 8.964 20.574 8.964 33.549 0 10.244-2.134 19.122-6.403 26.635-4.268 7.341-10.158 12.975-17.671 16.902-7.341 3.927-15.878 5.89-25.609 5.89Zm73.668-2.304V114.901h28.427v207.441h-28.427Zm111.415 2.561c-12.976 0-23.39-2.732-31.244-8.196-7.683-5.634-13.317-13.744-16.903-24.329-3.414-10.585-5.122-23.305-5.122-38.159v-69.403c0-15.195 1.537-28.085 4.61-38.671 3.244-10.756 8.878-18.951 16.903-24.585 8.195-5.634 19.549-8.451 34.061-8.451 12.976 0 23.39 2.219 31.244 6.658 8.024 4.269 13.829 10.927 17.415 19.976 3.585 8.878 5.378 20.146 5.378 33.805v7.683h-27.147v-6.402c0-9.049-.597-16.391-1.792-22.025-1.195-5.805-3.671-10.073-7.427-12.805-3.586-2.902-9.305-4.354-17.159-4.354-8.536 0-14.768 1.964-18.695 5.891-3.756 3.927-6.146 9.305-7.171 16.134-.854 6.659-1.28 14.256-1.28 22.793v76.829c0 9.903.683 18.183 2.048 24.842 1.537 6.659 4.354 11.61 8.452 14.854 4.097 3.244 9.902 4.866 17.414 4.866 7.513 0 13.318-1.793 17.415-5.378 4.098-3.586 6.915-8.879 8.451-15.879 1.537-7 2.305-15.707 2.305-26.122v-14.341h-26.378v-20.488h52.5v102.696h-18.183l-2.817-23.818c-2.731 7.683-7 14-12.805 18.952-5.805 4.951-13.829 7.427-24.073 7.427Zm87.626-2.561V114.901h19.719l58.902 137.782V114.901h24.07v207.441h-18.43l-59.676-141.623v141.623h-24.585Z"/></svg>