<svg xmlns="http://www.w3.org/2000/svg" width="1066" height="443" fill="none"><path fill="#fff" d="M0 .167h438.001v438.001H0V.167Z"/><path fill="#F75705" d="M34.067 321.97V114.53h28.427v207.44H34.067Zm61.988 0V114.53h45.073c15.366 0 27.488 2.39 36.366 7.171 9.049 4.609 15.452 11.609 19.208 21 3.927 9.39 5.89 21.085 5.89 35.085v76.318c0 14.683-1.963 27.061-5.89 37.134-3.756 10.073-9.988 17.756-18.695 23.049-8.537 5.122-20.062 7.683-34.574 7.683H96.055Zm28.939-20.744h16.39c10.586 0 18.098-2.049 22.537-6.146 4.439-4.098 7.086-10.074 7.939-17.927 1.025-7.854 1.537-17.33 1.537-28.427v-67.354c0-10.757-.683-19.464-2.049-26.122-1.366-6.659-4.354-11.525-8.963-14.598-4.61-3.073-11.866-4.61-21.769-4.61h-15.622v165.184Zm155.028 23.049c-11.951 0-21.939-2.561-29.964-7.683-7.853-5.122-13.829-12.207-17.927-21.256-4.097-9.049-6.487-19.549-7.17-31.5l25.61-6.915c.512 7.341 1.622 14.427 3.329 21.256 1.878 6.829 4.866 12.464 8.963 16.903 4.098 4.268 9.817 6.402 17.159 6.402 7.512 0 13.146-2.049 16.902-6.146 3.927-4.269 5.891-10.33 5.891-18.183 0-9.391-2.134-16.903-6.403-22.537-4.268-5.805-9.646-11.61-16.134-17.415l-34.829-30.732c-6.83-5.975-11.866-12.463-15.11-19.463-3.244-7.171-4.866-15.964-4.866-26.378 0-15.196 4.354-26.976 13.061-35.342s20.573-12.549 35.598-12.549c8.195 0 15.366 1.11 21.512 3.329 6.317 2.049 11.524 5.293 15.622 9.732 4.268 4.439 7.598 10.073 9.988 16.903 2.561 6.658 4.268 14.512 5.122 23.561l-24.586 6.658c-.512-6.829-1.536-13.061-3.073-18.695-1.536-5.805-4.268-10.415-8.195-13.829-3.756-3.586-9.22-5.378-16.39-5.378-7.171 0-12.805 1.963-16.903 5.89-3.927 3.756-5.89 9.39-5.89 16.903 0 6.317 1.024 11.524 3.073 15.622 2.22 4.097 5.72 8.28 10.5 12.548l35.086 30.732c7.853 6.83 14.768 15.025 20.744 24.586 5.975 9.39 8.963 20.573 8.963 33.549 0 10.244-2.134 19.122-6.402 26.634-4.269 7.342-10.159 12.976-17.671 16.903-7.342 3.926-15.878 5.89-25.61 5.89Zm68.546-2.305v-30.476h27.403v30.476h-27.403Z"/><path fill="#3A3A3A" d="M399.672 321.97V114.53h45.074c15.366 0 27.488 2.39 36.366 7.171 9.048 4.609 15.451 11.609 19.207 21 3.927 9.39 5.89 21.085 5.89 35.085v76.318c0 14.683-1.963 27.061-5.89 37.134-3.756 10.073-9.988 17.756-18.695 23.049-8.537 5.122-20.061 7.683-34.574 7.683h-47.378Zm28.939-20.744h16.391c10.585 0 18.097-2.049 22.536-6.146 4.439-4.098 7.086-10.074 7.939-17.927 1.025-7.854 1.537-17.33 1.537-28.427v-67.354c0-10.757-.683-19.464-2.049-26.122-1.366-6.659-4.353-11.525-8.963-14.598-4.61-3.073-11.866-4.61-21.769-4.61h-15.622v165.184Zm106.113 20.744V114.53h80.415v21.512h-51.475v68.635h41.744v20.488h-41.744v76.061h51.988v20.744h-80.928Zm153.206 2.305c-11.952 0-21.94-2.561-29.964-7.683-7.854-5.122-13.829-12.207-17.927-21.256-4.098-9.049-6.488-19.549-7.171-31.5l25.61-6.915c.512 7.341 1.622 14.427 3.329 21.256 1.879 6.829 4.866 12.464 8.964 16.903 4.098 4.268 9.817 6.402 17.159 6.402 7.512 0 13.146-2.049 16.902-6.146 3.927-4.269 5.89-10.33 5.89-18.183 0-9.391-2.134-16.903-6.402-22.537-4.268-5.805-9.646-11.61-16.134-17.415l-34.83-30.732c-6.829-5.975-11.866-12.463-15.11-19.463-3.244-7.171-4.866-15.964-4.866-26.378 0-15.196 4.354-26.976 13.062-35.342 8.707-8.366 20.573-12.549 35.597-12.549 8.195 0 15.366 1.11 21.513 3.329 6.317 2.049 11.524 5.293 15.622 9.732 4.268 4.439 7.597 10.073 9.987 16.903 2.561 6.658 4.269 14.512 5.122 23.561l-24.585 6.658c-.512-6.829-1.537-13.061-3.073-18.695-1.537-5.805-4.269-10.415-8.195-13.829-3.756-3.586-9.22-5.378-16.391-5.378-7.17 0-12.805 1.963-16.902 5.89-3.927 3.756-5.891 9.39-5.891 16.903 0 6.317 1.025 11.524 3.074 15.622 2.219 4.097 5.719 8.28 10.5 12.548l35.085 30.732c7.854 6.83 14.769 15.025 20.744 24.586 5.976 9.39 8.964 20.573 8.964 33.549 0 10.244-2.134 19.122-6.403 26.634-4.268 7.342-10.158 12.976-17.671 16.903-7.341 3.926-15.878 5.89-25.609 5.89Zm73.668-2.305V114.53h28.427v207.44h-28.427Zm111.415 2.561c-12.976 0-23.39-2.732-31.244-8.195-7.683-5.634-13.317-13.744-16.903-24.33-3.414-10.585-5.122-23.305-5.122-38.158v-69.403c0-15.195 1.537-28.086 4.61-38.671 3.244-10.756 8.878-18.951 16.903-24.586 8.195-5.634 19.549-8.451 34.061-8.451 12.976 0 23.39 2.22 31.244 6.659 8.024 4.268 13.829 10.927 17.415 19.975 3.585 8.879 5.378 20.147 5.378 33.805v7.683h-27.147v-6.402c0-9.049-.597-16.39-1.792-22.025-1.195-5.804-3.671-10.073-7.427-12.804-3.586-2.903-9.305-4.354-17.159-4.354-8.536 0-14.768 1.963-18.695 5.89-3.756 3.927-6.146 9.305-7.171 16.134-.854 6.659-1.28 14.257-1.28 22.793v76.83c0 9.902.683 18.183 2.048 24.841 1.537 6.659 4.354 11.61 8.452 14.854 4.097 3.244 9.902 4.866 17.414 4.866 7.513 0 13.318-1.793 17.415-5.378 4.098-3.585 6.915-8.878 8.451-15.878 1.537-7 2.305-15.708 2.305-26.122v-14.342h-26.378v-20.488h52.5V321.97h-18.183l-2.817-23.817c-2.731 7.683-7 14-12.805 18.951-5.805 4.951-13.829 7.427-24.073 7.427Zm87.626-2.561V114.53h19.719l58.902 137.781V114.53h24.07v207.44h-18.43l-59.676-141.623V321.97h-24.585Z"/></svg>