<svg xmlns="http://www.w3.org/2000/svg" width="37" height="36" fill="none"><g fill="#F75705" clip-path="url(#a)"><path d="M17.398.807c14.11-.972 23.651 13.907 16.654 26.279-5.392 9.534-18.67 11.757-26.956 4.6C-4.89 21.333 1.615 1.893 17.398.807Zm.634 1.14c-16.593.838-21.99 22.37-7.618 30.605 11.362 6.51 25.52-2.191 24.763-15.251-.508-8.767-8.373-15.798-17.145-15.354Z"/><path d="m18.851 15.751-.122.29c.056.427 2.029 1.117 2.49 1.402 3.518 2.187 1.927 6.717-2.077 6.901-1.556.071-4.537-.563-3.717-2.703.903-2.36 3.098.637 4.391-.93.117-.6-1.843-1.205-2.302-1.465-3.45-1.95-2.419-6.361 1.373-6.69 1.593-.138 4.645.393 3.554 2.666-.828 1.726-2.729-.14-3.587.53h-.003Zm-.318-2.027c-.944.158-1.915 1.09-1.997 2.062-.256 3.049 3.941 2.592 4.281 4.463.345 1.902-1.335 2.126-2.81 1.923-.515-.07-1.283-.762-1.533-.24-.595 1.241 2.198 1.335 2.914 1.264 1.77-.174 2.882-1.374 2.57-3.2-.35-2.046-3.915-2.138-4.252-3.605-.473-2.055 2.18-2.08 3.466-1.434.389-.109.607-.587.231-.87-.617-.467-2.124-.49-2.87-.364v.001Z"/><path d="M27.66 20.188c-.239-.246-1.478-.633-1.874-.85-4.58-2.515-1.784-7.922 3.3-6.593 1.374.359 2.361 1.485 1.27 2.788-.966 1.154-3.327-.616-3.55.383-.104.463 2.346 1.39 2.828 1.73 3.239 2.282 1.298 6.511-2.386 6.69-1.576.078-4.77-.68-3.636-2.874.87-1.682 2.28-.09 3.629-.3.534-.083.823-.556.419-.974Zm-1.014-6.464c-1.947.307-2.736 2.673-1.298 4.024 1.14 1.07 3.916 1.117 3.582 3.201-.286 1.795-2.892 1.372-4.071.749l-.444.528c.08.943 2.386 1.042 3.085.971 1.707-.174 2.866-1.466 2.57-3.199-.357-2.083-3.914-2.136-4.252-3.605-.479-2.069 2.155-2.07 3.466-1.433.389-.11.607-.588.231-.87-.626-.472-2.113-.484-2.87-.364v-.002ZM14.34 23.408c-.993.918-2.908 1.07-4.165.766-5.82-1.408-5.147-12.461 2.103-11.606 1.438.17 3.283 1.302 2.159 2.892-.829 1.172-1.543.318-2.53.26-2.951-.173-2.791 4.996-.729 5.422 1.305.27 2.254-.988 3.204-.034.684.688.661 1.648-.044 2.301l.001-.001Zm-.719-1.603c-5.792 2.893-7.26-7.652-1.328-7.098.372.035 1.318.557 1.437-.08.085-.457-.85-.842-1.215-.903-6.836-1.14-6.762 10.099-.478 9.473.71-.07 2.045-.47 1.584-1.392Z"/></g><defs><clipPath id="a"><path fill="#fff" d="M.91.76h35.492v35.143H.91z"/></clipPath></defs></svg>