<svg xmlns="http://www.w3.org/2000/svg" width="36" height="35" fill="none"><g fill="#F75705" clip-path="url(#a)"><path d="M16.11.084C27.767-.87 37.139 8.04 35.64 19.862 33.902 33.578 16.959 39.681 6.568 30.71-4.914 20.796.815 1.335 16.11.084Zm.634 1.14C3.73 2.174-2.86 17.06 5.054 27.408c7.845 10.26 24.644 7.572 28.704-4.739C37.498 11.333 28.537.363 16.744 1.224Z"/><path d="M19.178 24.82c-.366 2.891-3.435 4.486-6.045 3.257-2.394-1.127-2.87-4.323-1.177-6.294.216-.253.885-.7.885-.89-2.668-1.64-2.52-5.322.126-6.905-3.528-2.013-2.328-7.252 1.834-7.61 1.587-.137 6.918-.184 8.251.251 2.608.854 3.683 4.521 1.755 6.584l-.94.836c4.904 3.318.153 9.649-4.689 6.908-.111 1.216.15 2.68 0 3.865v-.001Zm-1.141-11.468V7.586c-.098-.141-.117-.132-.263-.136-.888-.02-2.344-.018-3.19.105-2.545.368-3.55 3.628-1.493 5.229.183.142.914.567 1.08.567h3.867l-.001.001Zm1.141 0h3.36c.164 0 .896-.425 1.08-.567 1.474-1.148 1.385-3.61-.137-4.683-1.392-.98-2.8-.388-4.301-.705v5.955h-.002Zm-1.141 1.14h-3.36c-1.02 0-2.446 1.462-2.587 2.483-.452 3.273 2.735 3.77 5.252 3.477.285-.033.5-.094.695-.32v-5.64Zm1.141 0v4.752c0 .249.712.82.964.936 2.641 1.223 5.674-1.195 4.326-4.07-.3-.637-1.507-1.619-2.184-1.619h-3.106v.002Zm-1.141 6.97h-3.613c-.82 0-2.003 1.282-2.257 2.053-1.25 3.796 4.189 5.31 5.554 2.257.053-.12.316-.9.316-.951v-3.358Z"/></g><defs><clipPath id="a"><path fill="#fff" d="M.502.014H35.8v34.923H.502z"/></clipPath></defs></svg>