<svg xmlns="http://www.w3.org/2000/svg" width="37" height="36" fill="none"><g fill="#F75705" clip-path="url(#a)"><path d="M16.91.952C29.391-.07 38.848 11.122 35.557 23.27 31.734 37.393 12.884 40.549 4.335 28.78-3.64 17.8 3.345 2.06 16.909.952Zm.759 1.14C4.729 2.825-2.314 17.526 5.296 28.073c7.398 10.255 23.45 8.542 28.394-3.123 4.76-11.227-3.897-23.545-16.021-22.858Z"/><path d="M20.357 22.014c-.467.5-1.064.39-1.265-.256l.115-7.864c.413-.428 1.24-.444 1.587.08l1.845 5.317 2.094-5.446c.375-.425 1.19-.324 1.517.122v8.112c-.456.436-1.02.284-1.2-.321l.121-5.763-1.621 4.27c-.321.706-1.125.737-1.604.158l-1.593-4.428c-.312 0 .002.372.002.443v5.576h.002ZM6.92 17.262h3.042v-3.358c.213-.428 1.267-.376 1.267 0v8.111c-.26.453-1.267.368-1.267-.127v-3.484H6.92v3.611c-.619.589-1.195.327-1.276-.498-.226-2.31.174-5 .02-7.351.13-.924 1.256-.546 1.256-.26v3.357ZM12.688 14.853c-.45-.094-.568-.63-.38-1.016a.745.745 0 0 1 .41-.223c.443-.096 4.832-.082 5.102.038.599.267.387 1.201-.06 1.201H15.92v7.034c0 .508-1.394.632-1.394-.127v-6.907c-.543-.076-1.335.106-1.838 0h-.001ZM28.978 21.064h2.853c.296 0 .444.863.158 1.11-.24.208-3.113.223-3.573.15-.187-.03-.704-.297-.704-.437v-7.984c.213-.428 1.267-.376 1.267 0v7.16h-.001Z"/></g><defs><clipPath id="a"><path fill="#fff" d="M.967.887h35.251v35.117H.968z"/></clipPath></defs></svg>