<svg xmlns="http://www.w3.org/2000/svg" width="36" height="35" fill="none"><g fill="#F75705" clip-path="url(#a)"><path d="M15.887.088c11.926-1 21.206 8.407 19.385 20.393-1.99 13.096-18.176 18.856-28.42 10.614C-5.19 21.405.287 1.395 15.887.088Zm.76 1.139C.72 2.372-4.112 23.147 9.205 31.277c11.974 7.31 26.932-2.4 24.927-16.302C32.916 6.55 25.057.623 16.647 1.227Z"/><path d="M17.542 21.356h-4.401c-.59 1.32-.567 3.485-2.293 3.855-1.54.33-2.977-.364-2.611-2.104 1.647-4.116 2.663-8.739 4.28-12.827.459-1.158 1.042-1.642 2.313-1.744 1.035-.084 2.344.02 2.964.975 1.288 4.317 3.38 8.777 4.522 13.095.318 1.205.316 2.376-1.172 2.63-2.846.488-2.85-1.912-3.6-3.88h-.002ZM15.363 9.603c-.994.002-1.391.209-1.794 1.093-1.736 3.818-2.56 8.716-4.222 12.64-.219.843.666.91 1.302.787 1-.192 1.162-3.538 1.84-3.861.11-.052.199-.054.312-.07 1.555-.21 3.663.123 5.274.062.903.297.962 3.68 1.96 3.869.718.136 1.578.024 1.272-.888L16.991 10.44c-.27-.678-.967-.839-1.628-.837ZM24.878 12.878c1.178-.245 2.226.352 2.446 1.551-.277 2.883.365 6.443-.014 9.242-.282 2.08-3.55 1.931-3.796-.113-.34-2.832.254-6.34.012-9.245.091-.593.762-1.315 1.352-1.436Zm.498 1.022c-.67.036-.785.607-.842 1.168-.19 1.91-.182 5.94-.006 7.86.143 1.573 1.61 1.418 1.772.368-.169-2.696.25-5.706.014-8.362-.05-.562-.287-1.068-.938-1.034ZM24.751 8.442c3.162-.656 3.488 3.987.476 3.908-2.391-.063-2.395-3.51-.476-3.908Zm.252 1.136c-.684.202-.66 1.494.106 1.624 1.51.256 1.357-2.054-.106-1.624Z"/><path d="M17.528 18.52c-.26.227-3.997.241-4.375.064-.413-.193-.3-.551-.225-.928.369-1.85 1.536-3.932 1.876-5.854.437-.648.866-.446 1.112.216.45 1.212 1.574 4.465 1.743 5.613.046.312.053.616-.13.888v.001Zm-1.108-.983-1.077-3.55-1.077 3.55h2.155-.001Z"/></g><defs><clipPath id="a"><path fill="#fff" d="M.305.014h35.197v34.91H.305z"/></clipPath></defs></svg>