<svg xmlns="http://www.w3.org/2000/svg" width="37" height="36" fill="none"><g fill="#F75705" clip-path="url(#a)"><path d="M17.297.148c11.216-.803 20.142 8.319 18.912 19.54-1.397 12.744-16.031 19.635-26.912 12.966C-5.22 23.76.175 1.374 17.297.148Zm.506 1.14C2.95 2.117-3.486 20.38 7.813 30.084c7.694 6.606 19.611 4.697 24.901-3.878C39.663 14.943 30.928.557 17.804 1.29Z"/><path d="M22.875 9.399c1.485-.151 5.302.24 5.235 2.308-.03.931-.905 1.752-1.843 1.713-.939-.04-2.674-1.138-3.69-.139-1.24 1.218 2.509 2.247 3.158 2.562 4.891 2.363 3.313 8.4-1.758 8.85-1.877.167-6.653-.463-5.5-3.344.733-1.83 2.314-.6 3.435-.29.871.24 2.553.51 2.836-.673.334-1.392-2.6-1.995-3.5-2.464-4.278-2.23-3.24-8.029 1.627-8.522v-.001Zm2.39 12.21c-.907.953-2.642.74-3.787.388-.604-.185-1.446-.892-1.932-.338-1.032 1.177 2.174 1.963 2.913 2.019 2.671.204 5.619-1.209 5.075-4.314-.56-3.2-5.37-2.908-6.056-4.844-.75-2.12 1.32-2.794 3.005-2.625.931.094 2.481 1.246 2.51-.473-2.736-2.104-7.921-1.15-7.232 3.165.497 3.113 5.56 2.769 6.025 5.001.144.698-.027 1.498-.523 2.019l.002.002ZM14.753 9.391c1.148-.238 2.127.305 2.435 1.436-.413 3.152.986 9.817-1.008 12.281-1.463 1.808-4.83 2.08-6.754.929-1.248-.748-1.734-2.22-.539-3.276 1.447-1.28 2.48 1.065 3.908.357.484-.24.56-.68.604-1.17.258-2.762-.29-5.979.012-8.733.088-.817.459-1.64 1.344-1.824h-.002Zm.51 1.009c-.503.041-.677.333-.731.796-.316 2.697.245 5.993.006 8.751-.156 1.812-1.224 2.673-3.054 2.284-.697-.149-1.851-1.55-2.125-.231-.22 1.054 1.635 1.615 2.45 1.678 2.082.162 4.047-.87 4.251-3.096.277-3.02-.222-6.45 0-9.517.01-.41-.408-.698-.797-.665Z"/></g><defs><clipPath id="a"><path fill="#fff" d="M.91.098h35.413v35.143H.91z"/></clipPath></defs></svg>