<svg xmlns="http://www.w3.org/2000/svg" width="37" height="36" fill="none"><g fill="#F75705" clip-path="url(#a)"><path d="M17.821.102c14.6-.267 23.576 15.913 14.784 27.83-7.149 9.69-22.224 9.47-29.006-.506C-4.308 15.796 3.827.357 17.82.102Zm12.406 28.81c8.36-8.592 4.757-23.025-6.576-26.73C11.338-1.84-.68 8.458 2.167 21.254c2.797 12.573 19.112 16.857 28.06 7.66Z"/><path d="M24.567 16.159c.338.983 1.7 1.131 2.54 1.578 3.182 1.695 2.848 5.843-.478 7.01-1.885.66-6.473.45-6.107-2.433.063-.503.483-1.25.995-1.411.934-.293 1.632.59 2.62.688.86.085 1.809-.08.725-.85-1.487-1.061-3.461-1.03-4.161-3.317-1.298-4.238 3.948-5.777 7.122-4.333 1.928.878 1 3.487-.652 3.45-.771-.017-1.7-.641-2.604-.383Zm3.134-1.87c-.37-.385-2.245-.69-2.814-.666-3.272.143-4.533 3.434-1.627 5.169 1.05.628 3.226.941 3.212 2.499-.013 1.475-2.046 1.474-3.08 1.297-.619-.105-1.489-1.134-1.715-.387-.212.7.007.972.567 1.282 2.456 1.357 7.099.009 5.77-3.36-.745-1.887-3.561-1.728-4.36-3.118-.803-1.398.619-2.088 1.862-1.99.587.047 1.43.524 1.934.287.37-.173.542-.715.251-1.016v.003Z"/><path d="M12.904 19.959v3.865c0 .148-.494.84-.664.983-1.262 1.043-3.12.336-3.36-1.266.206-4.078-.381-8.62-.036-12.647.09-1.05.611-1.923 1.728-2.075 1.5-.204 5.107-.103 6.477.473 4.357 1.832 4.092 8.356-.127 10.184-.277.119-1.317.484-1.544.484h-2.472l-.002-.001Zm-2.317-9.984c-.395.09-.587.4-.6.794.342 3.962-.45 8.679 0 12.55.128 1.102 1.6 1.16 1.77.117.148-.906-.25-3.839.201-4.36.406-.472 2.622-.187 3.386-.29 4.874-.66 5.143-8.368-.097-8.837-.853-.076-3.94-.14-4.661.026Z"/><path d="M12.488 11.496c.498-.11 1.925-.066 2.451.03 3.4.619 2.867 5.476-.444 5.777-.48.043-1.572.058-2.026-.014-.582-.092-.664-.423-.711-.936-.08-.878-.116-3.231.014-4.055.058-.377.336-.719.716-.804v.002Zm.416 4.788c1.526.239 3.697-.486 3.21-2.383-.11-.428-.836-1.292-1.245-1.292h-1.965v3.675Z"/></g><defs><clipPath id="a"><path fill="#fff" d="M.502.098H36.08v34.957H.502z"/></clipPath></defs></svg>