<svg xmlns="http://www.w3.org/2000/svg" width="36" height="36" fill="none"><g fill="#F75705" clip-path="url(#a)"><path d="M16.024.17C34.303-1.326 42.718 21.327 28.26 31.79 15.392 41.1-2.185 30.053.495 14.424 1.788 6.885 8.37.795 16.024.17Zm.634 1.139C4.906 2.15-2.216 14.703 3.308 25.226c5.905 11.253 22.021 11.707 28.64.874C38.95 14.64 29.916.36 16.658 1.31Z"/><path d="M16.937 15.718h2.536v-3.232c0-.134.61-.786.77-.876.871-.489 1.957-.023 2.246.903-.174 3.032.32 6.505.033 9.483-.123 1.272-1.405 1.92-2.458 1.178-.172-.12-.59-.664-.59-.804V18.76h-2.536v3.738c0 .064-.29.433-.374.513-1.073 1.005-2.538.257-2.674-1.14-.283-2.916.175-6.358.066-9.325.372-1.04 1.546-1.46 2.47-.815.129.089.513.524.513.63v3.357l-.002.001Zm-1.014.443c-.134-.91 0-2.43 0-3.421 0-.31-.888-.31-.888 0v9.568c0 .05.71.29.862-.215.227-.76-.274-3.918.277-4.284.45-.3 3.839-.402 4.312.255v4.055c0 .093.402.39.563.324.132.007.45-.26.45-.324v-9.378c0-.163-.608-.416-.856-.158-.351.365-.062 2.888-.152 3.586-.026.203-.05.4-.259.5-.255.125-3.277.111-3.732.051-.355-.046-.523-.189-.578-.558l.001-.001Z"/><path d="M8.698 19.775c-.11 1.073.359 2.514-.57 3.296-.86.724-2.146.357-2.444-.727l-.021-9.722c.064-.408.568-.966.97-1.058.554-.125 2.888-.096 3.524-.028 3.605.392 4.719 5.354 1.829 7.407-.99.703-2.121.726-3.287.833l-.001-.001Zm-1.173 2.499c.327-.384.07-2.329.152-2.952.136-1.049 1.445-.615 2.224-.691 3.529-.348 3.54-5.71-.127-6.08-.424-.043-2.6-.062-2.852.06a.47.47 0 0 0-.227.28l-.021 9.095c.029.435.605.577.852.287l-.001.001ZM26.445 19.647c-.124.978.338 2.695-.442 3.424-.848.792-2.185.303-2.575-.727l-.02-9.725c.075-.468.55-.923.999-1.03.615-.145 2.558-.119 3.24-.053 4.736.458 4.982 7.064.705 8.053-.523.12-1.418.242-1.907.057Zm-2.03-6.78v9.25c0 .093.403.39.564.324.132.008.45-.26.45-.323v-3.042c0-.599 2.048-.408 2.459-.458 3.294-.39 3.312-5.702-.368-6.067-.437-.043-2.574-.065-2.85.065-.058.027-.243.209-.254.25Z"/><path d="M7.683 13.753c.169-.605 2.473-.324 3.012.03 1.035.68 1.087 2.636.22 3.454-.124.116-.773.508-.886.508H7.874l-.19-.19v-3.802Zm1.014 2.979c2.48.464 2.324-2.682 0-2.28v2.28ZM25.43 13.88c.015-.078.12-.198.162-.284 2.008-.705 4.389.36 3.606 2.783-.142.44-.841 1.366-1.295 1.366H25.62l-.19-.19c.14-1.095-.188-2.642 0-3.675Zm1.014 2.852c2.44.48 2.403-2.753 0-2.28v2.28Z"/></g><defs><clipPath id="a"><path fill="#fff" d="M.22.098h35.373v35.104H.22z"/></clipPath></defs></svg>