<svg xmlns="http://www.w3.org/2000/svg" width="36" height="36" fill="none"><g fill="#F75705" clip-path="url(#a)"><path d="M16.811.136C25.767-.431 34.096 5.342 35.7 14.32c2.776 15.537-14.263 26.57-27.375 17.826C-.229 26.442-1.844 14.18 4.722 6.298 7.592 2.852 12.313.421 16.812.136Zm1.411.96C3.897 1.177-3.59 17.926 5.904 28.676c8.598 9.733 24.83 5.904 28.424-6.484 3.091-10.656-5.15-21.158-16.106-21.096Z"/><path d="M6.664 15.443c1.07-1.088 2.826-1.62 4.267-2.01-.265-1.439-.509-2.967-.374-4.439.125-1.372.957-2.482 2.39-2.604 2.184-.184 3.796 1.568 5.383 2.755 1.354-.988 2.829-2.594 4.612-2.751 3.993-.352 3.297 4.52 2.811 7.045 1.73.49 4.384 1.267 5.065 3.136.768 2.106-1.202 3.635-2.89 4.408-.299.136-2.047.744-2.106.84-.07.115.272 1.869.293 2.208.073 1.229.088 3.162-.865 4.072-2.083 1.985-5.281-.72-6.912-2.113-1.542 1.359-4.022 3.565-6.234 2.57-2.29-1.03-1.512-4.78-1.2-6.736-1.476-.594-3.26-1.085-4.36-2.304-1.169-1.293-1.094-2.844.119-4.077Zm8.922-3.054c.229-.214.505-.704.728-.968.172-.202 1.192-1.32 1.208-1.426.019-.053 0-.095-.022-.143-.078-.174-1.394-1.197-1.642-1.373-1.476-1.043-4.07-2.041-4.287.695-.1 1.285.069 2.693.394 3.934.803-.13 1.6-.298 2.404-.433.403-.067.904.005 1.217-.288v.002Zm7.436-4.955c-1.34.166-3.035 1.57-3.875 2.577l2.073 2.522 3.379.579c.14-.042.232-.717.266-.89.314-1.636.8-5.114-1.843-4.787v-.001Zm-3.25 4.976c-.423-.566-.858-1.187-1.44-1.602-.213 0-1.159 1.299-1.377 1.507l2.817.095Zm-2.704.98c-.409.026-.84-.029-1.14.27-.447.449-1.152 1.703-1.485 2.294-.16.288-.844 1.468-.794 1.709.48.849.88 1.752 1.393 2.58.365.588.752 1.378 1.493 1.452.946.096 2.569.085 3.521 0 .623-.055.703-.222 1.047-.683.444-.596 1.618-2.528 1.809-3.187.066-.228.082-.285 0-.519-.261-.738-1.568-2.948-2.09-3.545-.384-.44-1.418-.298-1.982-.322-.615-.027-1.131-.088-1.772-.048Zm-2.485.303-2.299.455c-.15.214.671 1.814.698 2.17l1.6-2.624v-.002Zm9.03 2.624c.08-.3.86-1.947.742-2.116-.26-.153-2.103-.543-2.214-.445l1.471 2.561h.001Zm-12.366-1.852c-1.385.251-4.515 1.33-4.546 3.037-.033 1.719 3.101 2.892 4.45 3.298l1.254-3.24-1.158-3.095Zm14.168.001c-.307 1.07-.726 2.095-1.198 3.1.245.652.546 1.283.79 1.937.069.184.345 1.169.397 1.203.187.124.831-.148 1.06-.226 1.389-.465 4.177-1.794 3.309-3.694-.592-1.297-3.055-2.069-4.36-2.32h.002Zm-10.83 6.973-1.602-2.624-.742 2.18c.1.145 2.232.528 2.343.444Zm9.79-.393c.1-.161-.466-1.562-.576-1.808-.056-.123-.141-.35-.247-.425l-1.409 2.625c.094.082 2.158-.27 2.234-.392h-.001Zm-12.39 1.052c-.094.017-.115.211-.137.289-.285 1.016-.521 3.852.056 4.707 1.196 1.773 4.33-.485 5.37-1.525.121-.12.311-.279.224-.478-.1-.228-.722-.804-.927-1.062-.36-.45-.679-.937-1.066-1.367l-3.52-.564Zm12.573-.004-3.439.597c-.412.53-.799 1.076-1.221 1.596-.13.16-.712.738-.738.86-.041.185.574.667.74.807.996.848 3.44 2.625 4.646 1.377.768-.795.548-2.958.404-3.994-.029-.213-.174-1.148-.31-1.23l-.082-.015v.002Zm-4.85.69h-2.754l1.315 1.664c.19.047 1.294-1.42 1.44-1.664h-.001Z"/><path d="M18.157 15.375c2.634-.187 3.323 3.691.721 4.37-3.089.808-3.878-4.147-.72-4.37Z"/></g><defs><clipPath id="a"><path fill="#fff" d="M.685.098H36v35.138H.685z"/></clipPath></defs></svg>