<svg xmlns="http://www.w3.org/2000/svg" width="37" height="36" fill="none"><g fill="#F75705" clip-path="url(#a)"><path d="M17.609.464c12.28-.665 21.503 10.714 18.028 22.569-3.841 13.1-20.95 16.843-30.122 6.771C-4.493 18.815 2.844 1.264 17.61.464Zm-.065 1.024C4.717 2.258-2.579 16.99 5.017 27.548c8.504 11.824 27.287 7.903 30.007-6.475C37.056 10.326 28.387.838 17.544 1.488Z"/><path d="M18.186 9.94c1.089-.075 2.449.22 3.432.693 2.46 1.185 4.285 4.852 7.512 3.076.383-.21.959-.88 1.368-.75.693.218.184 1.267-.031 1.703-1.573 3.18-5.29 4.48-8.534 3.018-2.58-1.163-4.256-4.652-7.66-3.326-.463.18-.964.728-1.474.613-.689-.157-.004-1.46.2-1.823 1.072-1.915 3.004-3.05 5.185-3.203h.002Zm10.902 4.912c-1.07.419-2.195.416-3.282.047-1.776-.604-2.754-2.237-4.36-3.132-2.597-1.446-5.429-.922-7.217 1.453.297.038.573-.132.865-.16 4.148-.405 5.357 3.896 9.223 4.16 2 .138 3.667-.723 4.77-2.366v-.002ZM12.101 17.111c1.648-.093 3.36.469 4.684 1.427 2.003 1.453 3.24 3.683 6.113 2.387.508-.23 1.933-1.39 1.834-.024-.074 1.007-1.322 2.6-2.119 3.196-1.966 1.471-4.29 1.687-6.55.733-2.522-1.064-4.736-5.09-7.875-3.308-.422.24-1.168 1.077-1.618.505-.302-.383.291-1.473.522-1.857 1.009-1.687 3.032-2.947 5.01-3.06v.002Zm10.965 4.977c-.42.066-.83.213-1.257.247-3.445.277-4.505-2.93-7.34-3.851-2.314-.752-4.615-.114-6.134 1.78-.012.166.026.068.11.045 4.404-1.136 5.218 2.772 8.616 3.78 2.35.698 4.592 0 6.005-2.001Z"/></g><defs><clipPath id="a"><path fill="#fff" d="M.91.436h35.468v35.113H.91z"/></clipPath></defs></svg>