<svg xmlns="http://www.w3.org/2000/svg" width="36" height="36" fill="none"><g fill="#F75705" clip-path="url(#a)"><path d="M16.362.503C29.268-.579 39.091 11.464 34.77 23.848 30.04 37.411 11.667 39.513 3.554 27.803c-7.53-10.87-.32-26.199 12.808-27.3Zm.634 1.14C4.102 2.541-2.89 17.447 5.053 27.827c7.095 9.272 21.302 8.432 27.283-1.597C39.111 14.87 30.01.738 16.996 1.643Z"/><path d="M7.686 23.105c-1.869-2.12 2.074-3.777 3.12-5.224.045-.195-2.528-2.138-2.866-2.507-1.341-1.46-.748-2.683.75-3.66 1.515-.988 2.107-.427 3.321.54.342.27 2.622 2.438 2.852 2.275a.631.631 0 0 1 .186-.38c1.671-1.745 3.316-3.546 5.012-5.26.79-.798 1.747-2.085 2.97-1.953.572.062 3.606 1.606 4.221 1.995.794.502 1.226 1.014 1.312 1.984-.308 4.457.393 9.427 0 13.823-.07.78-.406 1.419-1.028 1.887-.538.405-3.128 1.68-3.798 1.907-.879.296-1.54.194-2.28-.375l-7.05-7.027c-1.3.728-3.136 3.249-4.668 3.164-.522-.03-1.708-.8-2.053-1.19l-.001.001Zm.883-8.613c.692.82 2.277 1.809 3.13 2.636.307.297.633.496.484.988l-3.846 3.516c-.373.81 1.547 2.051 2.263 1.243l3.512-2.953.431-.072 7.923 7.678c.187.064.38.08.576.065.344-.025 3.296-1.482 3.703-1.757.638-.432.74-.851.804-1.605.266-3.115.027-7.212 0-10.39-.011-1.33.357-3.14-.85-3.975-.405-.28-3.05-1.63-3.462-1.738-.665-.174-1.082.193-1.527.636-.939.933-1.858 2.088-2.782 3.048a306.637 306.637 0 0 1-4.023 4.097l-.414-.045-4.257-3.48c-.94-.036-2.5 1.119-1.664 2.11l-.001-.002Z"/><path d="M23.71 23.245c-.228.23-.744.185-.977-.04-1.562-1.66-3.59-2.983-5.205-4.553-.249-.242-.75-.663-.75-1.017l.366-.638 5.71-4.681c.48-.235.983.108 1.019.625-.213 3.122.26 6.562-.001 9.643-.017.196-.022.519-.163.66h.002Zm-.857-1.49v-7.983l-4.69 3.988 4.69 3.995Z"/></g><defs><clipPath id="a"><path fill="#fff" d="M.502.436h35.302v35.003H.502z"/></clipPath></defs></svg>