<svg width="513" height="227" viewBox="0 0 513 227" fill="none" xmlns="http://www.w3.org/2000/svg">
<path d="M0.725342 0.347778H208.7V208.322H0.725342V0.347778Z" fill="#FF6B00"/>
<path d="M460.439 201.407V123.662H455.855L457.765 105.897H478.586V113.347L483.362 105.897H488.519C494.377 105.897 499.026 107.552 502.464 110.864C506.03 114.175 507.813 118.441 507.813 123.662V183.642H512.588L510.678 201.407H489.666V124.617C489.666 123.98 489.347 123.662 488.71 123.662H478.586V201.407H460.439Z" fill="#3A3A3A"/>
<path d="M422.889 205.228V209.43C422.889 210.067 423.207 210.385 423.844 210.385H433.013C433.65 210.385 433.968 210.067 433.968 209.43V193.958L429.193 201.407H424.035C418.177 201.407 413.465 199.752 409.899 196.441C406.461 193.003 404.742 188.736 404.742 183.642V123.662C404.742 118.441 406.461 114.175 409.899 110.864C413.465 107.552 418.177 105.897 424.035 105.897H424.799C428.238 105.897 431.294 106.725 433.968 108.38V105.897H452.115V209.048C452.115 214.397 450.46 218.663 447.149 221.847C443.838 225.158 439.508 226.813 434.159 226.813H422.698C417.349 226.813 413.019 225.158 409.708 221.847C406.397 218.663 404.742 214.397 404.742 209.048V205.228H422.889ZM423.844 123.662C423.207 123.662 422.889 123.98 422.889 124.617V182.687C422.889 183.324 423.207 183.642 423.844 183.642H433.968V123.662H423.844Z" fill="#3A3A3A"/>
<path d="M396.235 80.4912L398.146 98.2562H379.999V80.4912H396.235ZM398.146 105.897V201.407H379.999V123.662H377.133L379.044 105.897H398.146Z" fill="#3A3A3A"/>
<path d="M325.505 171.417L343.652 173.327V182.687C343.652 183.324 343.971 183.643 344.607 183.643H352.248C352.885 183.643 353.203 183.324 353.203 182.687V164.922L336.203 157.664C334.165 156.772 331.873 155.371 329.326 153.461C326.779 151.551 325.505 148.431 325.505 144.101V122.898C325.505 117.549 327.161 113.283 330.472 110.099C333.783 106.788 338.113 105.133 343.461 105.133H353.394C358.743 105.133 363.073 106.788 366.384 110.099C369.695 113.283 371.35 117.549 371.35 122.898V135.123L353.203 133.213V123.853C353.203 123.216 352.885 122.898 352.248 122.898H344.607C343.971 122.898 343.652 123.216 343.652 123.853V141.618L360.653 148.877C362.691 149.768 364.983 151.169 367.53 153.079C370.077 154.989 371.35 158.109 371.35 162.439V183.643C371.35 188.991 369.695 193.321 366.384 196.632C363.073 199.816 358.743 201.407 353.394 201.407H343.461C338.113 201.407 333.783 199.816 330.472 196.632C327.161 193.321 325.505 188.991 325.505 183.643V171.417Z" fill="#3A3A3A"/>
<path d="M270.102 184.407V122.898C270.102 117.549 271.758 113.283 275.069 110.099C278.38 106.788 282.709 105.133 288.058 105.133H299.901C305.25 105.133 309.58 106.788 312.891 110.099C316.202 113.283 317.857 117.549 317.857 122.898V146.393H299.71V123.853C299.71 123.216 299.392 122.898 298.755 122.898H289.204C288.567 122.898 288.249 123.216 288.249 123.853V146.393H317.857V164.158H288.249V183.452C288.249 184.088 288.567 184.407 289.204 184.407H298.755C299.392 184.407 299.71 184.152 299.71 183.643V173.136H317.857V184.407C317.857 189.755 316.202 194.085 312.891 197.396C309.58 200.58 305.25 202.172 299.901 202.172H288.058C282.709 202.172 278.38 200.58 275.069 197.396C271.758 194.085 270.102 189.755 270.102 184.407Z" fill="#3A3A3A"/>
<path d="M262.498 183.643C262.498 188.991 260.843 193.321 257.532 196.632C254.221 199.816 249.891 201.408 244.542 201.408H212.833V85.4578H209.968L211.878 67.6929H244.542C249.891 67.6929 254.221 69.3484 257.532 72.6594C260.843 75.8431 262.498 80.1092 262.498 85.4578V183.643ZM243.396 85.4578H230.98V183.643H243.396C244.033 183.643 244.351 183.324 244.351 182.687V86.4129C244.351 85.7762 244.033 85.4578 243.396 85.4578Z" fill="#3A3A3A"/>
<path d="M187.463 183.643H205.228V201.408H187.463V183.643Z" fill="white"/>
<path d="M152.072 163.203V183.451C152.072 184.088 152.39 184.407 153.027 184.407H160.668C161.305 184.407 161.623 184.088 161.623 183.451V149.068L146.532 142.382C145.386 142 143.794 141.363 141.757 140.472C139.719 139.453 137.873 137.989 136.217 136.078C134.689 134.168 133.925 131.557 133.925 128.246V84.6937C133.925 79.3451 135.58 75.0789 138.891 71.8953C142.203 68.5842 146.532 66.9287 151.881 66.9287H161.814C167.163 66.9287 171.492 68.5842 174.803 71.8953C178.114 75.0789 179.77 79.3451 179.77 84.6937V112.965L161.623 111.437V85.6488C161.623 85.012 161.305 84.6937 160.668 84.6937H153.027C152.39 84.6937 152.072 85.012 152.072 85.6488V125.572L167.163 132.258C168.309 132.767 169.901 133.468 171.938 134.359C173.976 135.251 175.759 136.651 177.287 138.562C178.942 140.472 179.77 143.082 179.77 146.393V184.407C179.77 189.755 178.114 194.085 174.803 197.396C171.492 200.58 167.163 202.172 161.814 202.172H151.881C146.532 202.172 142.203 200.58 138.891 197.396C135.58 194.085 133.925 189.755 133.925 184.407V163.203H152.072Z" fill="white"/>
<path d="M95.576 201.408C89.718 201.408 85.0061 199.752 81.4404 196.441C78.002 193.003 76.2828 188.736 76.2828 183.643V123.662C76.2828 118.441 78.002 114.175 81.4404 110.864C85.0061 107.553 89.718 105.897 95.576 105.897H96.34C99.7784 105.897 102.835 106.725 105.509 108.38V85.4578H100.925L102.835 67.6929H123.656V183.643H126.33L128.241 201.408H105.509V193.958L100.734 201.408H95.576ZM95.3849 123.662C94.7482 123.662 94.4298 123.98 94.4298 124.617V182.687C94.4298 183.324 94.7482 183.643 95.3849 183.643H105.509V123.662H95.3849Z" fill="white"/>
<path d="M50.5621 201.408V85.4578H47.6968L49.607 67.6929H68.7091V201.408H50.5621Z" fill="white"/>
</svg>
