<svg width="219" height="103" viewBox="0 0 219 103" fill="none" xmlns="http://www.w3.org/2000/svg">
<path d="M0 0H103V103H0V0Z" fill="#FF6B00"/>
<path d="M42.967 99V64.17H47.74V99H42.967ZM53.375 99V64.17H60.943C63.523 64.17 65.5583 64.5713 67.049 65.374C68.5683 66.148 69.6433 67.3233 70.274 68.9C70.9334 70.4767 71.263 72.4403 71.263 74.791V87.605C71.263 90.0703 70.9334 92.1487 70.274 93.84C69.6433 95.5313 68.597 96.8213 67.135 97.71C65.7017 98.57 63.7667 99 61.33 99H53.375ZM58.234 95.517H60.986C62.7633 95.517 64.0247 95.173 64.77 94.485C65.5153 93.797 65.9597 92.7937 66.103 91.475C66.275 90.1563 66.361 88.5653 66.361 86.702V75.393C66.361 73.587 66.2463 72.125 66.017 71.007C65.7877 69.889 65.286 69.072 64.512 68.556C63.738 68.04 62.5197 67.782 60.857 67.782H58.234V95.517ZM84.2638 99.387C82.2571 99.387 80.5801 98.957 79.2328 98.097C77.9141 97.237 76.9108 96.0473 76.2228 94.528C75.5348 93.0087 75.1335 91.2457 75.0188 89.239L79.3188 88.078C79.4048 89.3107 79.5911 90.5003 79.8778 91.647C80.1931 92.7937 80.6948 93.7397 81.3828 94.485C82.0708 95.2017 83.0311 95.56 84.2638 95.56C85.5251 95.56 86.4711 95.216 87.1018 94.528C87.7611 93.8113 88.0908 92.7937 88.0908 91.475C88.0908 89.8983 87.7325 88.637 87.0158 87.691C86.2991 86.7163 85.3961 85.7417 84.3068 84.767L78.4588 79.607C77.3121 78.6037 76.4665 77.5143 75.9218 76.339C75.3771 75.135 75.1048 73.6587 75.1048 71.91C75.1048 69.3587 75.8358 67.3807 77.2978 65.976C78.7598 64.5713 80.7521 63.869 83.2748 63.869C84.6508 63.869 85.8548 64.0553 86.8868 64.428C87.9475 64.772 88.8218 65.3167 89.5098 66.062C90.2265 66.8073 90.7855 67.7533 91.1868 68.9C91.6168 70.018 91.9035 71.3367 92.0468 72.856L87.9188 73.974C87.8328 72.8273 87.6608 71.781 87.4028 70.835C87.1448 69.8603 86.6861 69.0863 86.0268 68.513C85.3961 67.911 84.4788 67.61 83.2748 67.61C82.0708 67.61 81.1248 67.9397 80.4368 68.599C79.7775 69.2297 79.4478 70.1757 79.4478 71.437C79.4478 72.4977 79.6198 73.372 79.9638 74.06C80.3365 74.748 80.9241 75.4503 81.7268 76.167L87.6178 81.327C88.9365 82.4737 90.0975 83.8497 91.1008 85.455C92.1041 87.0317 92.6058 88.9093 92.6058 91.088C92.6058 92.808 92.2475 94.2987 91.5308 95.56C90.8141 96.7927 89.8251 97.7387 88.5638 98.398C87.3311 99.0573 85.8978 99.387 84.2638 99.387ZM95.773 99V93.883H100.374V99H95.773ZM104.354 99V64.17H111.922C114.502 64.17 116.537 64.5713 118.028 65.374C119.547 66.148 120.622 67.3233 121.253 68.9C121.912 70.4767 122.242 72.4403 122.242 74.791V87.605C122.242 90.0703 121.912 92.1487 121.253 93.84C120.622 95.5313 119.576 96.8213 118.114 97.71C116.68 98.57 114.745 99 112.309 99H104.354ZM109.213 95.517H111.965C113.742 95.517 115.003 95.173 115.749 94.485C116.494 93.797 116.938 92.7937 117.082 91.475C117.254 90.1563 117.34 88.5653 117.34 86.702V75.393C117.34 73.587 117.225 72.125 116.996 71.007C116.766 69.889 116.265 69.072 115.491 68.556C114.717 68.04 113.498 67.782 111.836 67.782H109.213V95.517ZM127.029 99V64.17H140.531V67.782H131.888V79.306H138.897V82.746H131.888V95.517H140.617V99H127.029ZM152.753 99.387C150.746 99.387 149.069 98.957 147.722 98.097C146.403 97.237 145.4 96.0473 144.712 94.528C144.024 93.0087 143.623 91.2457 143.508 89.239L147.808 88.078C147.894 89.3107 148.08 90.5003 148.367 91.647C148.682 92.7937 149.184 93.7397 149.872 94.485C150.56 95.2017 151.52 95.56 152.753 95.56C154.014 95.56 154.96 95.216 155.591 94.528C156.25 93.8113 156.58 92.7937 156.58 91.475C156.58 89.8983 156.222 88.637 155.505 87.691C154.788 86.7163 153.885 85.7417 152.796 84.767L146.948 79.607C145.801 78.6037 144.956 77.5143 144.411 76.339C143.866 75.135 143.594 73.6587 143.594 71.91C143.594 69.3587 144.325 67.3807 145.787 65.976C147.249 64.5713 149.241 63.869 151.764 63.869C153.14 63.869 154.344 64.0553 155.376 64.428C156.437 64.772 157.311 65.3167 157.999 66.062C158.716 66.8073 159.275 67.7533 159.676 68.9C160.106 70.018 160.393 71.3367 160.536 72.856L156.408 73.974C156.322 72.8273 156.15 71.781 155.892 70.835C155.634 69.8603 155.175 69.0863 154.516 68.513C153.885 67.911 152.968 67.61 151.764 67.61C150.56 67.61 149.614 67.9397 148.926 68.599C148.267 69.2297 147.937 70.1757 147.937 71.437C147.937 72.4977 148.109 73.372 148.453 74.06C148.826 74.748 149.413 75.4503 150.216 76.167L156.107 81.327C157.426 82.4737 158.587 83.8497 159.59 85.455C160.593 87.0317 161.095 88.9093 161.095 91.088C161.095 92.808 160.737 94.2987 160.02 95.56C159.303 96.7927 158.314 97.7387 157.053 98.398C155.82 99.0573 154.387 99.387 152.753 99.387ZM165.122 99V64.17H169.895V99H165.122ZM183.829 99.43C181.651 99.43 179.902 98.9713 178.583 98.054C177.293 97.108 176.347 95.7463 175.745 93.969C175.172 92.1917 174.885 90.056 174.885 87.562V75.909C174.885 73.3577 175.143 71.1933 175.659 69.416C176.204 67.61 177.15 66.234 178.497 65.288C179.873 64.342 181.78 63.869 184.216 63.869C186.395 63.869 188.144 64.2417 189.462 64.987C190.81 65.7037 191.784 66.8217 192.386 68.341C192.988 69.8317 193.289 71.7237 193.289 74.017V75.307H188.731V74.232C188.731 72.7127 188.631 71.48 188.43 70.534C188.23 69.5593 187.814 68.8427 187.183 68.384C186.581 67.8967 185.621 67.653 184.302 67.653C182.869 67.653 181.823 67.9827 181.163 68.642C180.533 69.3013 180.131 70.2043 179.959 71.351C179.816 72.469 179.744 73.7447 179.744 75.178V88.078C179.744 89.7407 179.859 91.131 180.088 92.249C180.346 93.367 180.819 94.1983 181.507 94.743C182.195 95.2877 183.17 95.56 184.431 95.56C185.693 95.56 186.667 95.259 187.355 94.657C188.043 94.055 188.516 93.1663 188.774 91.991C189.032 90.8157 189.161 89.3537 189.161 87.605V85.197H184.732V81.757H193.547V99H190.494L190.021 95.001C189.563 96.291 188.846 97.3517 187.871 98.183C186.897 99.0143 185.549 99.43 183.829 99.43ZM198.542 99V64.17H201.853L211.743 87.304V64.17H215.785V99H212.689L202.67 75.221V99H198.542Z" fill="white"/>
</svg>
