<svg width="219" height="104" viewBox="0 0 219 104" fill="none" xmlns="http://www.w3.org/2000/svg">
<path d="M0 0.5H103V103.5H0V0.5Z" fill="#FF6B00"/>
<path d="M42.967 99.5V64.67H47.74V99.5H42.967ZM53.375 99.5V64.67H60.943C63.523 64.67 65.5583 65.0713 67.049 65.874C68.5683 66.648 69.6433 67.8233 70.274 69.4C70.9334 70.9767 71.263 72.9403 71.263 75.291V88.105C71.263 90.5703 70.9334 92.6487 70.274 94.34C69.6433 96.0313 68.597 97.3213 67.135 98.21C65.7017 99.07 63.7667 99.5 61.33 99.5H53.375ZM58.234 96.017H60.986C62.7633 96.017 64.0247 95.673 64.77 94.985C65.5153 94.297 65.9597 93.2937 66.103 91.975C66.275 90.6563 66.361 89.0653 66.361 87.202V75.893C66.361 74.087 66.2463 72.625 66.017 71.507C65.7877 70.389 65.286 69.572 64.512 69.056C63.738 68.54 62.5197 68.282 60.857 68.282H58.234V96.017ZM84.2638 99.887C82.2571 99.887 80.5801 99.457 79.2328 98.597C77.9141 97.737 76.9108 96.5473 76.2228 95.028C75.5348 93.5087 75.1335 91.7457 75.0188 89.739L79.3188 88.578C79.4048 89.8107 79.5911 91.0003 79.8778 92.147C80.1931 93.2937 80.6948 94.2397 81.3828 94.985C82.0708 95.7017 83.0311 96.06 84.2638 96.06C85.5251 96.06 86.4711 95.716 87.1018 95.028C87.7611 94.3113 88.0908 93.2937 88.0908 91.975C88.0908 90.3983 87.7325 89.137 87.0158 88.191C86.2991 87.2163 85.3961 86.2417 84.3068 85.267L78.4588 80.107C77.3121 79.1037 76.4665 78.0143 75.9218 76.839C75.3771 75.635 75.1048 74.1587 75.1048 72.41C75.1048 69.8587 75.8358 67.8807 77.2978 66.476C78.7598 65.0713 80.7521 64.369 83.2748 64.369C84.6508 64.369 85.8548 64.5553 86.8868 64.928C87.9475 65.272 88.8218 65.8167 89.5098 66.562C90.2265 67.3073 90.7855 68.2533 91.1868 69.4C91.6168 70.518 91.9035 71.8367 92.0468 73.356L87.9188 74.474C87.8328 73.3273 87.6608 72.281 87.4028 71.335C87.1448 70.3603 86.6861 69.5863 86.0268 69.013C85.3961 68.411 84.4788 68.11 83.2748 68.11C82.0708 68.11 81.1248 68.4397 80.4368 69.099C79.7775 69.7297 79.4478 70.6757 79.4478 71.937C79.4478 72.9977 79.6198 73.872 79.9638 74.56C80.3365 75.248 80.9241 75.9503 81.7268 76.667L87.6178 81.827C88.9365 82.9737 90.0975 84.3497 91.1008 85.955C92.1041 87.5317 92.6058 89.4093 92.6058 91.588C92.6058 93.308 92.2475 94.7987 91.5308 96.06C90.8141 97.2927 89.8251 98.2387 88.5638 98.898C87.3311 99.5573 85.8978 99.887 84.2638 99.887ZM95.773 99.5V94.383H100.374V99.5H95.773Z" fill="white"/>
<path d="M104.354 99.5V64.67H111.922C114.502 64.67 116.537 65.0713 118.028 65.874C119.547 66.648 120.622 67.8233 121.253 69.4C121.912 70.9767 122.242 72.9403 122.242 75.291V88.105C122.242 90.5703 121.912 92.6487 121.253 94.34C120.622 96.0313 119.576 97.3213 118.114 98.21C116.68 99.07 114.745 99.5 112.309 99.5H104.354ZM109.213 96.017H111.965C113.742 96.017 115.003 95.673 115.749 94.985C116.494 94.297 116.938 93.2937 117.082 91.975C117.254 90.6563 117.34 89.0653 117.34 87.202V75.893C117.34 74.087 117.225 72.625 116.996 71.507C116.766 70.389 116.265 69.572 115.491 69.056C114.717 68.54 113.498 68.282 111.836 68.282H109.213V96.017ZM127.029 99.5V64.67H140.531V68.282H131.888V79.806H138.897V83.246H131.888V96.017H140.617V99.5H127.029ZM152.753 99.887C150.746 99.887 149.069 99.457 147.722 98.597C146.403 97.737 145.4 96.5473 144.712 95.028C144.024 93.5087 143.623 91.7457 143.508 89.739L147.808 88.578C147.894 89.8107 148.08 91.0003 148.367 92.147C148.682 93.2937 149.184 94.2397 149.872 94.985C150.56 95.7017 151.52 96.06 152.753 96.06C154.014 96.06 154.96 95.716 155.591 95.028C156.25 94.3113 156.58 93.2937 156.58 91.975C156.58 90.3983 156.222 89.137 155.505 88.191C154.788 87.2163 153.885 86.2417 152.796 85.267L146.948 80.107C145.801 79.1037 144.956 78.0143 144.411 76.839C143.866 75.635 143.594 74.1587 143.594 72.41C143.594 69.8587 144.325 67.8807 145.787 66.476C147.249 65.0713 149.241 64.369 151.764 64.369C153.14 64.369 154.344 64.5553 155.376 64.928C156.437 65.272 157.311 65.8167 157.999 66.562C158.716 67.3073 159.275 68.2533 159.676 69.4C160.106 70.518 160.393 71.8367 160.536 73.356L156.408 74.474C156.322 73.3273 156.15 72.281 155.892 71.335C155.634 70.3603 155.175 69.5863 154.516 69.013C153.885 68.411 152.968 68.11 151.764 68.11C150.56 68.11 149.614 68.4397 148.926 69.099C148.267 69.7297 147.937 70.6757 147.937 71.937C147.937 72.9977 148.109 73.872 148.453 74.56C148.826 75.248 149.413 75.9503 150.216 76.667L156.107 81.827C157.426 82.9737 158.587 84.3497 159.59 85.955C160.593 87.5317 161.095 89.4093 161.095 91.588C161.095 93.308 160.737 94.7987 160.02 96.06C159.303 97.2927 158.314 98.2387 157.053 98.898C155.82 99.5573 154.387 99.887 152.753 99.887ZM165.122 99.5V64.67H169.895V99.5H165.122ZM183.829 99.93C181.651 99.93 179.902 99.4713 178.583 98.554C177.293 97.608 176.347 96.2463 175.745 94.469C175.172 92.6917 174.885 90.556 174.885 88.062V76.409C174.885 73.8577 175.143 71.6933 175.659 69.916C176.204 68.11 177.15 66.734 178.497 65.788C179.873 64.842 181.78 64.369 184.216 64.369C186.395 64.369 188.144 64.7417 189.462 65.487C190.81 66.2037 191.784 67.3217 192.386 68.841C192.988 70.3317 193.289 72.2237 193.289 74.517V75.807H188.731V74.732C188.731 73.2127 188.631 71.98 188.43 71.034C188.23 70.0593 187.814 69.3427 187.183 68.884C186.581 68.3967 185.621 68.153 184.302 68.153C182.869 68.153 181.823 68.4827 181.163 69.142C180.533 69.8013 180.131 70.7043 179.959 71.851C179.816 72.969 179.744 74.2447 179.744 75.678V88.578C179.744 90.2407 179.859 91.631 180.088 92.749C180.346 93.867 180.819 94.6983 181.507 95.243C182.195 95.7877 183.17 96.06 184.431 96.06C185.693 96.06 186.667 95.759 187.355 95.157C188.043 94.555 188.516 93.6663 188.774 92.491C189.032 91.3157 189.161 89.8537 189.161 88.105V85.697H184.732V82.257H193.547V99.5H190.494L190.021 95.501C189.563 96.791 188.846 97.8517 187.871 98.683C186.897 99.5143 185.549 99.93 183.829 99.93ZM198.542 99.5V64.67H201.853L211.743 87.804V64.67H215.785V99.5H212.689L202.67 75.721V99.5H198.542Z" fill="#1E1E1E"/>
</svg>
