<svg width="657" height="418" viewBox="0 0 657 418" fill="none" xmlns="http://www.w3.org/2000/svg">
<g clip-path="url(#clip0_59_412)">
<path d="M651.416 299.554L642.035 417.627H577.165L567.785 299.554H651.416Z" fill="#FF6600"/>
<path opacity="0.1" d="M651.416 299.554L642.035 417.627H577.165L567.785 299.554H651.416Z" fill="black"/>
<path d="M656.99 288.896H561.646V306.113H656.99V288.896Z" fill="#3A3A3A"/>
<path d="M650.459 288.896H568.186L572.996 269.554H645.65L650.459 288.896Z" fill="#282828"/>
<path d="M632.119 359.629C632.119 374.959 622.041 387.388 609.6 387.388C597.16 387.388 587.081 374.959 587.081 359.629C587.081 344.299 597.16 331.87 609.6 331.87C622.041 331.87 632.119 344.299 632.119 359.629Z" fill="white"/>
<path d="M22.2991 159.17C23.9629 158.165 25.7319 157.399 27.5583 156.882L28.6388 151.663L37.436 151.51L38.6982 156.681C40.5437 157.14 42.3414 157.839 44.034 158.787L48.4804 155.867L54.8106 161.985L52.0566 166.534C53.0607 168.2 53.8256 169.971 54.342 171.8L59.5534 172.882L59.7064 181.691L54.5428 182.955C54.0838 184.803 53.3858 186.603 52.4391 188.298L55.3556 192.751L49.2454 199.09L44.7033 196.332C43.0395 197.337 41.2705 198.103 39.4441 198.62L38.3636 203.839L29.5663 203.992L28.3041 198.821C26.4586 198.362 24.6609 197.663 22.9684 196.715L18.522 199.635L12.1918 193.517L14.9457 188.968C13.9417 187.302 13.1767 185.531 12.6604 183.702L7.44895 182.62L7.29596 173.811L12.4595 172.547C12.9185 170.699 13.6166 168.899 14.5632 167.204L11.6468 162.751L17.757 156.412L22.3086 159.17H22.2991ZM26.9941 170.9C23.37 174.653 23.4752 180.638 27.2332 184.267C30.9815 187.896 36.9579 187.791 40.582 184.028C44.2061 180.274 44.1009 174.29 40.3429 170.66C36.5946 167.031 30.6182 167.137 26.9941 170.9Z" fill="#EBEBEB"/>
<path d="M35.2654 31.6463C36.9293 30.6409 38.6983 29.8749 40.5246 29.3578L41.6052 24.1393L50.4024 23.9861L51.6646 29.1567C53.5101 29.6164 55.3078 30.3154 57.0003 31.2633L61.4467 28.3428L67.7769 34.4615L65.023 39.0097C66.027 40.6758 66.792 42.4473 67.3084 44.2761L72.5198 45.3581L72.6728 54.1674L67.5092 55.4314C67.0502 57.2794 66.3522 59.0795 65.4055 60.7744L68.322 65.2269L62.2117 71.5657L57.6697 68.808C56.0059 69.8135 54.2368 70.5795 52.4105 71.0965L51.3299 76.3151L42.5327 76.4683L41.2705 71.2976C39.425 70.838 37.6273 70.139 35.9348 69.1911L31.4884 72.1115L25.1582 65.9929L27.9121 61.4446C26.9081 59.7785 26.1431 58.0071 25.6267 56.1782L20.4153 55.0962L20.2623 46.287L25.4259 45.023C25.8849 43.175 26.5829 41.3748 27.5296 39.68L24.6131 35.2275L30.7234 28.8886L35.275 31.6463H35.2654ZM39.9509 43.3856C36.3268 47.1392 36.432 53.1237 40.19 56.7528C43.9383 60.3818 49.9147 60.2765 53.5388 56.5134C57.1629 52.7599 57.0577 46.7753 53.2998 43.1463C49.5514 39.5172 43.575 39.6225 39.9509 43.3856Z" fill="#EBEBEB"/>
<path d="M227.255 81.1028C229.263 79.8867 231.405 78.9675 233.605 78.3355L234.915 72.035L245.538 71.853L247.068 78.0961C249.296 78.6419 251.467 79.4941 253.513 80.6336L258.878 77.1099L266.518 84.502L263.19 89.9982C264.405 92.009 265.323 94.1539 265.954 96.3562L272.236 97.668L272.427 108.306L266.193 109.838C265.648 112.069 264.797 114.243 263.659 116.292L267.178 121.673L259.796 129.324L254.307 125.992C252.299 127.208 250.157 128.127 247.958 128.759L246.648 135.06L236.024 135.241L234.494 128.998C232.266 128.453 230.095 127.6 228.049 126.461L222.685 129.985L215.044 122.593L218.372 117.096C217.158 115.085 216.24 112.941 215.609 110.738L209.317 109.426L209.135 98.7883L215.37 97.2563C215.915 95.0252 216.766 92.8517 217.904 90.8025L214.385 85.4308L221.767 77.7801L227.255 81.1123V81.1028ZM232.916 95.2742C228.546 99.8129 228.671 107.033 233.203 111.409C237.736 115.784 244.945 115.66 249.315 111.121C253.685 106.583 253.561 99.3629 249.029 94.9869C244.496 90.611 237.286 90.7355 232.916 95.2742Z" fill="#EBEBEB"/>
<path d="M82.5792 11.9404C83.4207 11.4329 84.3195 11.0499 85.2375 10.7818L85.7825 8.14856L90.229 8.07196L90.8696 10.686C91.7972 10.9158 92.7056 11.2701 93.5662 11.7489L95.8133 10.2743L99.0166 13.3671L97.6205 15.6652C98.1273 16.5078 98.5098 17.4079 98.7776 18.3271L101.407 18.8729L101.484 23.3254L98.8732 23.967C98.6437 24.8958 98.2899 25.8054 97.8118 26.6672L99.2844 28.9174L96.1958 32.1251L93.9008 30.7271C93.0594 31.2346 92.1605 31.6176 91.2426 31.8857L90.6975 34.5189L86.2511 34.5955L85.6104 31.9815C84.6829 31.7517 83.7745 31.3974 82.9139 30.9186L80.6668 32.3932L77.4634 29.3004L78.8595 27.0023C78.3527 26.1597 77.9702 25.2596 77.7025 24.3404L75.0729 23.7946L74.9964 19.3421L77.6069 18.7005C77.8363 17.7717 78.1901 16.8621 78.6683 16.0003L77.1957 13.7501L80.2843 10.5424L82.5792 11.9404ZM84.9506 17.8771C83.1242 19.773 83.1721 22.7988 85.0654 24.6372C86.9587 26.4661 89.9803 26.4182 91.8163 24.5223C93.6427 22.6264 93.5949 19.6006 91.7015 17.7622C89.8082 15.9237 86.7866 15.9812 84.9506 17.8771Z" fill="#EBEBEB"/>
<path fill-rule="evenodd" clip-rule="evenodd" d="M552.925 43.7304C552.925 44.6496 552.179 45.3965 551.261 45.3965C550.343 45.3965 549.597 44.6496 549.597 43.7304C549.597 42.8111 550.343 42.0643 551.261 42.0643C552.179 42.0643 552.925 42.8111 552.925 43.7304Z" fill="#E0E0E0"/>
<path fill-rule="evenodd" clip-rule="evenodd" d="M595.964 16.1535C595.964 17.0728 595.219 17.8196 594.301 17.8196C593.383 17.8196 592.637 17.0728 592.637 16.1535C592.637 15.2343 593.383 14.4874 594.301 14.4874C595.219 14.4874 595.964 15.2343 595.964 16.1535Z" fill="#E0E0E0"/>
<path d="M544.654 352.783C544.654 352.783 544.635 352.323 544.625 351.433C544.625 350.532 544.615 349.211 544.606 347.478C544.596 343.993 544.577 338.86 544.558 332.244C544.539 318.991 544.51 299.812 544.481 276.018C544.462 228.419 544.434 162.407 544.405 88.7056V88.6481L544.434 88.5906C546.585 84.3009 548.909 79.7048 551.232 75.0703L551.204 75.1852V74.2469C551.204 63.8768 551.204 53.6408 551.204 43.7112L551.452 43.9602C455.324 43.9027 374.016 43.8453 333.176 43.8261L333.291 43.7112C333.272 53.8228 333.252 61.5883 333.233 66.8356C333.224 69.4496 333.214 71.4317 333.205 72.7723C333.195 74.1032 333.176 74.7831 333.176 74.7831C333.176 74.7831 333.157 74.1032 333.147 72.7723C333.147 71.4317 333.128 69.4496 333.119 66.8356C333.109 61.5883 333.09 53.8323 333.061 43.7112V43.5963H333.176C374.016 43.5676 455.324 43.5197 551.452 43.4623H551.701V43.7112C551.701 53.6408 551.701 63.8768 551.701 74.2469V75.2427L551.672 75.3001C549.339 79.9346 547.025 84.5307 544.874 88.8205L544.902 88.7056C544.874 162.407 544.845 228.419 544.826 276.018C544.797 299.812 544.768 318.991 544.749 332.244C544.73 338.86 544.711 343.993 544.701 347.478C544.692 349.211 544.682 350.532 544.682 351.433C544.682 352.323 544.654 352.783 544.654 352.783Z" fill="#E0E0E0"/>
<path d="M587.521 163.479C587.521 163.479 587.492 162.991 587.473 162.043C587.454 161.085 587.425 159.687 587.387 157.849C587.32 154.162 587.225 148.743 587.1 141.81C586.88 127.916 586.565 107.923 586.173 83.487V83.4487L586.182 83.4104C588.611 76.9375 591.174 70.1103 593.842 62.9959V63.0725C593.823 48.7861 593.813 32.9486 593.803 16.2301L594.042 16.4695C574.966 16.4695 554.273 16.4695 532.825 16.4791C496.039 16.4695 461.472 16.4599 431.504 16.4503H431.37L431.313 16.3259C429.247 11.95 427.239 7.7081 425.298 3.58114L425.489 3.69605C397.071 3.65775 373.5 3.62902 357.024 3.60987C348.801 3.58114 342.346 3.56199 337.938 3.55242C335.748 3.54284 334.065 3.53327 332.918 3.52369C331.78 3.51412 331.197 3.49497 331.197 3.49497C331.197 3.49497 331.78 3.47581 332.918 3.46624C334.065 3.46624 335.748 3.44709 337.938 3.43751C342.346 3.42794 348.801 3.40879 357.024 3.38006C373.5 3.36091 397.071 3.33219 425.489 3.29388H425.623L425.681 3.40879C427.631 7.53574 429.649 11.7776 431.714 16.1439L431.514 16.0195C461.472 16.0195 496.049 16.0003 532.835 15.9907C554.283 15.9907 574.975 15.9907 594.052 16.0003H594.291V16.2397C594.291 32.9677 594.272 48.7957 594.262 63.082V63.1203L594.253 63.1586C591.575 70.2731 589.003 77.0811 586.555 83.554V83.487C586.88 107.923 587.139 127.916 587.32 141.82C587.397 148.752 587.454 154.172 587.502 157.858C587.511 159.687 587.531 161.095 587.531 162.052C587.531 163 587.531 163.489 587.531 163.489L587.521 163.479Z" fill="#E0E0E0"/>
<path d="M575.597 174.184C575.597 174.184 575.568 173.648 575.54 172.595C575.511 171.541 575.473 169.981 575.415 167.941C575.32 163.852 575.167 157.839 574.985 150.112C574.631 134.648 574.124 112.357 573.503 84.9903V84.952L573.522 84.9137C576.362 78.2493 579.374 71.1827 582.51 63.8193L582.491 63.8959C582.769 52.3673 583.075 39.9098 583.39 26.8491L583.62 27.0789C551.605 27.0789 515.632 27.0981 477.728 27.0981C411.175 27.0693 350.589 27.0502 305.79 27.031L305.924 26.9736C300.961 31.9336 296.304 36.5872 291.944 40.9439L291.896 40.9918H291.829C271.987 40.8195 256.181 40.6854 245.328 40.5897C239.916 40.5322 235.737 40.4843 232.897 40.4556C231.491 40.4365 230.42 40.4173 229.684 40.4077C228.967 40.3982 228.594 40.379 228.594 40.379C228.594 40.379 228.957 40.3694 229.684 40.3599C230.411 40.3599 231.482 40.3599 232.897 40.3599C235.727 40.3694 239.916 40.3886 245.328 40.4077C256.181 40.4652 271.987 40.5514 291.829 40.6663L291.714 40.7141C296.065 36.3478 300.712 31.6846 305.665 26.7151L305.723 26.6576H305.799C350.598 26.6385 411.184 26.6193 477.737 26.5906C515.642 26.5906 551.615 26.6097 583.629 26.6097H583.859V26.8395C583.524 39.9002 583.199 52.3673 582.912 63.8864V63.9247L582.893 63.963C579.747 71.3168 576.725 78.3738 573.866 85.0382L573.885 84.9616C574.44 112.328 574.889 134.629 575.195 150.093C575.339 157.81 575.453 163.824 575.53 167.922C575.559 169.961 575.587 171.513 575.606 172.576C575.616 173.629 575.606 174.165 575.606 174.165L575.597 174.184Z" fill="#E0E0E0"/>
<path fill-rule="evenodd" clip-rule="evenodd" d="M231.434 40.2354C231.434 41.1546 230.688 41.9015 229.77 41.9015C228.852 41.9015 228.106 41.1546 228.106 40.2354C228.106 39.3161 228.852 38.5693 229.77 38.5693C230.688 38.5693 231.434 39.3161 231.434 40.2354Z" fill="#E0E0E0"/>
<path fill-rule="evenodd" clip-rule="evenodd" d="M331.197 3.49496C331.197 4.41419 330.451 5.16106 329.533 5.16106C328.615 5.16106 327.869 4.41419 327.869 3.49496C327.869 2.57573 328.615 1.82886 329.533 1.82886C330.451 1.82886 331.197 2.57573 331.197 3.49496Z" fill="#E0E0E0"/>
<path d="M651.224 417.751C651.224 417.885 505.429 418 325.631 418C145.833 418 0 417.885 0 417.751C0 417.617 145.766 417.502 325.631 417.502C505.496 417.502 651.224 417.617 651.224 417.751Z" fill="#3A3A3A"/>
<path d="M162.768 177.756H62.8046V417.808H162.768V177.756Z" fill="#E0E0E0"/>
<path d="M112.786 177.756H33.7546V417.808H112.786V177.756Z" fill="#F5F5F5"/>
<path d="M112.901 417.636C112.767 417.636 112.652 363.871 112.652 297.571C112.652 231.272 112.767 177.497 112.901 177.497C113.035 177.497 113.15 231.243 113.15 297.571C113.15 363.9 113.035 417.636 112.901 417.636Z" fill="#3A3A3A"/>
<path d="M151.15 205.333H127.206V207.803H151.15V205.333Z" fill="#3A3A3A"/>
<path d="M151.15 212.409H127.206V214.879H151.15V212.409Z" fill="#3A3A3A"/>
<path d="M151.15 219.475H127.206V221.946H151.15V219.475Z" fill="#3A3A3A"/>
<path d="M105.146 187.973H41.9207V410.196H105.146V187.973Z" fill="#E0E0E0"/>
<path d="M98.8445 196.15H46.4628V204.097H98.8445V196.15Z" fill="#EBEBEB"/>
<path d="M54.3994 196.15H46.4628V204.097H54.3994V196.15Z" fill="#FF6600"/>
<path d="M100.47 196.15H83.2199V204.097H100.47V196.15Z" fill="#F5F5F5"/>
<path d="M98.8445 210.302H46.4628V218.25H98.8445V210.302Z" fill="#EBEBEB"/>
<path d="M54.3994 210.302H46.4628V218.25H54.3994V210.302Z" fill="white"/>
<path d="M100.47 210.302H83.2199V218.25H100.47V210.302Z" fill="#F5F5F5"/>
<path d="M98.8445 224.445H46.4628V232.392H98.8445V224.445Z" fill="#EBEBEB"/>
<path d="M54.3994 224.445H46.4628V232.392H54.3994V224.445Z" fill="#FF6600"/>
<path d="M100.47 224.445H83.2199V232.392H100.47V224.445Z" fill="#F5F5F5"/>
<path d="M98.8445 238.597H46.4628V246.545H98.8445V238.597Z" fill="#EBEBEB"/>
<path d="M54.3994 238.597H46.4628V246.545H54.3994V238.597Z" fill="white"/>
<path d="M100.47 238.597H83.2199V246.545H100.47V238.597Z" fill="#F5F5F5"/>
<path d="M98.8445 252.75H46.4628V260.697H98.8445V252.75Z" fill="#EBEBEB"/>
<path d="M54.3994 252.75H46.4628V260.697H54.3994V252.75Z" fill="#FF6600"/>
<path d="M100.47 252.75H83.2199V260.697H100.47V252.75Z" fill="#F5F5F5"/>
<path d="M98.8445 266.892H46.4628V274.84H98.8445V266.892Z" fill="#EBEBEB"/>
<path d="M54.3994 266.892H46.4628V274.84H54.3994V266.892Z" fill="#FF6600"/>
<path d="M100.47 266.892H83.2199V274.84H100.47V266.892Z" fill="#F5F5F5"/>
<path d="M98.8445 281.045H46.4628V288.992H98.8445V281.045Z" fill="#EBEBEB"/>
<path d="M54.3994 281.045H46.4628V288.992H54.3994V281.045Z" fill="white"/>
<path d="M100.47 281.045H83.2199V288.992H100.47V281.045Z" fill="#F5F5F5"/>
<path d="M98.8445 295.197H46.4628V303.144H98.8445V295.197Z" fill="#EBEBEB"/>
<path d="M54.3994 295.197H46.4628V303.144H54.3994V295.197Z" fill="white"/>
<path d="M100.47 295.197H83.2199V303.144H100.47V295.197Z" fill="#F5F5F5"/>
<path d="M98.8445 309.34H46.4628V317.287H98.8445V309.34Z" fill="#EBEBEB"/>
<path d="M54.3994 309.34H46.4628V317.287H54.3994V309.34Z" fill="white"/>
<path d="M100.47 309.34H83.2199V317.287H100.47V309.34Z" fill="#F5F5F5"/>
<path d="M98.8445 323.492H46.4628V331.439H98.8445V323.492Z" fill="#EBEBEB"/>
<path d="M54.3994 323.492H46.4628V331.439H54.3994V323.492Z" fill="#FF6600"/>
<path d="M100.47 323.492H83.2199V331.439H100.47V323.492Z" fill="#F5F5F5"/>
<path d="M98.8445 337.644H46.4628V345.592H98.8445V337.644Z" fill="#EBEBEB"/>
<path d="M54.3994 337.644H46.4628V345.592H54.3994V337.644Z" fill="white"/>
<path d="M100.47 337.644H83.2199V345.592H100.47V337.644Z" fill="#F5F5F5"/>
<path d="M98.8445 351.796H46.4628V359.744H98.8445V351.796Z" fill="#EBEBEB"/>
<path d="M54.3994 351.796H46.4628V359.744H54.3994V351.796Z" fill="#FF6600"/>
<path d="M100.47 351.796H83.2199V359.744H100.47V351.796Z" fill="#F5F5F5"/>
<path d="M98.8445 365.939H46.4628V373.887H98.8445V365.939Z" fill="#EBEBEB"/>
<path d="M54.3994 365.939H46.4628V373.887H54.3994V365.939Z" fill="white"/>
<path d="M100.47 365.939H83.2199V373.887H100.47V365.939Z" fill="#F5F5F5"/>
<path d="M98.8445 380.091H46.4628V388.039H98.8445V380.091Z" fill="#EBEBEB"/>
<path d="M54.3994 380.091H46.4628V388.039H54.3994V380.091Z" fill="#FF6600"/>
<path d="M100.47 380.091H83.2199V388.039H100.47V380.091Z" fill="#F5F5F5"/>
<path d="M98.8445 394.244H46.4628V402.191H98.8445V394.244Z" fill="#EBEBEB"/>
<path d="M54.3994 394.244H46.4628V402.191H54.3994V394.244Z" fill="white"/>
<path d="M100.47 394.244H83.2199V402.191H100.47V394.244Z" fill="#F5F5F5"/>
<path d="M162.768 417.809C162.768 415.673 162.672 318.13 162.538 177.756L162.768 177.986C122.97 177.986 79.3376 177.995 33.7737 178.005H33.7546L34.0032 177.756C33.9841 269.909 33.9554 354.171 33.9458 417.809L33.7546 417.617C113.102 417.732 161.257 417.799 162.768 417.809C161.267 417.809 113.102 417.885 33.7546 418H33.5634V417.809C33.5442 354.171 33.5251 269.909 33.506 177.756V177.507H33.7546H33.7737C79.3376 177.507 122.97 177.516 162.768 177.526H162.997V177.756C162.95 248 162.911 308.037 162.883 350.523C162.806 392.855 162.768 416.746 162.758 417.809H162.768Z" fill="#3A3A3A"/>
<path d="M501.48 110.097H157.394C151.465 110.097 146.656 114.913 146.656 120.85V364.225C146.656 370.162 151.465 374.978 157.394 374.978H289.457L283.051 417.492H378.797L373.452 374.978H501.48C507.409 374.978 512.219 370.162 512.219 364.225V120.859C512.219 114.923 507.409 110.106 501.48 110.106V110.097Z" fill="#3A3A3A"/>
<path d="M334.027 349.383C338.703 356.086 331.378 363.421 324.694 358.729C324.474 358.576 324.274 358.375 324.121 358.154C319.454 351.461 326.769 344.127 333.453 348.809C333.673 348.962 333.874 349.163 334.027 349.383Z" fill="#3A3A3A"/>
<path d="M165.55 119.394H493.372C498.487 119.394 502.647 123.56 502.647 128.682V330.463H156.275V128.682C156.275 123.56 160.435 119.394 165.55 119.394Z" fill="#F5F5F5"/>
<path d="M408.956 374.988C408.956 375.103 380.107 375.198 344.536 375.198C308.964 375.198 280.115 375.103 280.115 374.988C280.115 374.873 308.955 374.777 344.536 374.777C380.117 374.777 408.956 374.873 408.956 374.988Z" fill="#3A3A3A"/>
<path d="M216.307 136.065H191.062V141.398H216.307V136.065Z" fill="#3A3A3A"/>
<path d="M203.684 159.955H191.062V165.289H203.684V159.955Z" fill="#FF6600"/>
<path d="M218.343 171.972H200.567V177.306H218.343V171.972Z" fill="#3A3A3A"/>
<path d="M231.52 171.972H221.164V177.306H231.52V171.972Z" fill="#3A3A3A"/>
<path d="M324.388 171.972H303.084V177.306H324.388V171.972Z" fill="#3A3A3A"/>
<path d="M386.638 183.692H350.656V189.026H386.638V183.692Z" fill="#3A3A3A"/>
<path d="M442.147 171.972H424.868V177.306H442.147V171.972Z" fill="#3A3A3A"/>
<path d="M482.193 171.972H447.444V177.306H482.193V171.972Z" fill="#3A3A3A"/>
<path d="M218.343 183.692H200.567V189.026H218.343V183.692Z" fill="#3A3A3A"/>
<path d="M207.423 195.374H189.647V200.708H207.423V195.374Z" fill="#FF6600"/>
<path d="M207.423 207.056H199.114V212.39H207.423V207.056Z" fill="#3A3A3A"/>
<path d="M237.898 231.665H229.598V236.998H237.898V231.665Z" fill="#3A3A3A"/>
<path d="M360.065 276.142H343.838V281.475H360.065V276.142Z" fill="#3A3A3A"/>
<path d="M450.715 276.142H410.964V281.475H450.715V276.142Z" fill="#3A3A3A"/>
<path d="M298.972 264.47H282.745V269.803H298.972V264.47Z" fill="#E0E0E0"/>
<path d="M240.183 254.444H223.956V259.778H240.183V254.444Z" fill="#3A3A3A"/>
<path d="M340.472 276.142H314.883V281.475H340.472V276.142Z" fill="#3A3A3A"/>
<path d="M212.587 218.958H199.114V224.292H212.587V218.958Z" fill="#3A3A3A"/>
<path d="M224.109 231.866H199.114V237.199H224.109V231.866Z" fill="#3A3A3A"/>
<path d="M235.689 241.757H199.114V247.09H235.689V241.757Z" fill="#3A3A3A"/>
<path d="M301.955 241.757H265.38V247.09H301.955V241.757Z" fill="#3A3A3A"/>
<path d="M274.99 264.47H223.631V269.803H274.99V264.47Z" fill="#3A3A3A"/>
<path d="M310.494 276.142H223.631V281.475H310.494V276.142Z" fill="#3A3A3A"/>
<path d="M284.217 287.814H197.354V293.148H284.217V287.814Z" fill="#3A3A3A"/>
<path d="M261.498 241.757H239.552V247.09H261.498V241.757Z" fill="#3A3A3A"/>
<path d="M233.337 207.056H210.694V212.39H233.337V207.056Z" fill="#3A3A3A"/>
<path d="M238.328 218.958H215.685V224.292H238.328V218.958Z" fill="#3A3A3A"/>
<path d="M326.052 218.958H266.097V224.292H326.052V218.958Z" fill="#3A3A3A"/>
<path d="M396.918 218.958H327.678V224.292H396.918V218.958Z" fill="#3A3A3A"/>
<path d="M260.79 218.958H242.048V224.292H260.79V218.958Z" fill="#3A3A3A"/>
<path d="M266.126 207.056H236.445V212.39H266.126V207.056Z" fill="#3A3A3A"/>
<path d="M285.919 207.056H269.396V212.39H285.919V207.056Z" fill="#E0E0E0"/>
<path d="M239.696 183.692H221.164V189.026H239.696V183.692Z" fill="#3A3A3A"/>
<path d="M343.79 183.692H252.289V189.026H343.79V183.692Z" fill="#3A3A3A"/>
<path d="M446.498 218.958H403.238V224.292H446.498V218.958Z" fill="#3A3A3A"/>
<path d="M407.551 276.142H364.282V281.475H407.551V276.142Z" fill="#3A3A3A"/>
<path d="M418.136 171.972H328.003V177.306H418.136V171.972Z" fill="#3A3A3A"/>
<path d="M297.48 171.972H234.762V177.306H297.48V171.972Z" fill="#3A3A3A"/>
<path d="M233.289 147.373H191.062V152.707H233.289V147.373Z" fill="#3A3A3A"/>
<path d="M295.329 147.373H237.506V152.707H295.329V147.373Z" fill="#3A3A3A"/>
<path d="M238.845 136.065H220.256V141.398H238.845V136.065Z" fill="#E0E0E0"/>
<path d="M181.844 136.065H176.681V141.398H181.844V136.065Z" fill="#3A3A3A"/>
<path d="M181.844 147.737H176.681V153.071H181.844V147.737Z" fill="#3A3A3A"/>
<path d="M181.844 159.41H176.681V164.743H181.844V159.41Z" fill="#3A3A3A"/>
<path d="M181.844 171.082H176.681V176.415H181.844V171.082Z" fill="#3A3A3A"/>
<path d="M181.844 182.754H176.681V188.088H181.844V182.754Z" fill="#3A3A3A"/>
<path d="M181.844 194.426H176.681V199.76H181.844V194.426Z" fill="#3A3A3A"/>
<path d="M181.844 206.099H176.681V211.432H181.844V206.099Z" fill="#3A3A3A"/>
<path d="M181.844 217.771H176.681V223.104H181.844V217.771Z" fill="#3A3A3A"/>
<path d="M181.844 229.443H176.681V234.777H181.844V229.443Z" fill="#3A3A3A"/>
<path d="M235.861 313.026H227.561V318.359H235.861V313.026Z" fill="#E0E0E0"/>
<path d="M222.513 313.026H197.517V318.359H222.513V313.026Z" fill="#FF6600"/>
<path d="M181.844 312.442H176.681V317.775H181.844V312.442Z" fill="#3A3A3A"/>
<path d="M181.844 241.125H176.681V246.459H181.844V241.125Z" fill="#3A3A3A"/>
<path d="M181.844 252.797H176.681V258.131H181.844V252.797Z" fill="#3A3A3A"/>
<path d="M181.844 264.47H176.681V269.803H181.844V264.47Z" fill="#3A3A3A"/>
<path d="M181.844 276.142H176.681V281.475H181.844V276.142Z" fill="#3A3A3A"/>
<path d="M181.844 287.814H176.681V293.148H181.844V287.814Z" fill="#3A3A3A"/>
<path d="M222.675 300.099H197.354V305.433H222.675V300.099Z" fill="#3A3A3A"/>
<path d="M284.849 300.099H227.561V305.433H284.849V300.099Z" fill="#3A3A3A"/>
<path d="M181.844 300.099H176.681V305.433H181.844V300.099Z" fill="#3A3A3A"/>
<path d="M320.975 147.335H302.386V152.669H320.975V147.335Z" fill="#E0E0E0"/>
<g opacity="0.3">
<path d="M258.543 374.394C260.465 364.819 254.24 336.179 254.24 336.179L207.748 342.097L205.826 374.183L258.533 374.394H258.543Z" fill="black"/>
</g>
<path d="M199.353 336.179C199.353 336.179 201.39 374.26 192.87 387.359L250.759 388.786C250.759 388.786 255.253 366.542 254.23 336.179H199.353Z" fill="#FF6600"/>
<path d="M254.087 343.552C254.087 343.686 242.038 343.801 227.169 343.801C212.3 343.801 200.252 343.686 200.252 343.552C200.252 343.418 212.3 343.303 227.169 343.303C242.038 343.303 254.087 343.418 254.087 343.552Z" fill="#3A3A3A"/>
<path d="M247.651 356.584C247.651 356.718 238.022 356.833 226.137 356.833C214.251 356.833 204.622 356.718 204.622 356.584C204.622 356.45 214.251 356.335 226.137 356.335C238.022 356.335 247.651 356.45 247.651 356.584Z" fill="#3A3A3A"/>
<path d="M248.12 363.698C248.12 363.833 238.491 363.947 226.605 363.947C214.719 363.947 205.09 363.833 205.09 363.698C205.09 363.564 214.719 363.45 226.605 363.45C238.491 363.45 248.12 363.564 248.12 363.698Z" fill="#3A3A3A"/>
<path d="M246.772 370.813C246.772 370.947 237.143 371.062 225.257 371.062C213.371 371.062 203.742 370.947 203.742 370.813C203.742 370.679 213.371 370.564 225.257 370.564C237.143 370.564 246.772 370.679 246.772 370.813Z" fill="#3A3A3A"/>
<g opacity="0.3">
<path d="M189.791 336.897C189.791 336.897 192.267 365.077 192.267 375.112H185.143L189.791 336.897Z" fill="black"/>
</g>
<path d="M172.722 336.897C172.722 336.897 174.759 374.978 166.239 388.077H185.296C185.296 388.077 190.804 367.26 189.781 336.897H172.722Z" fill="#E0E0E0"/>
<path d="M288.176 277.205C288.176 276.401 288.281 274.265 288.281 273.365C288.281 269.468 286.895 267.706 283.271 267.601C281.569 267.495 280.555 266.481 280.555 265.044C280.555 263.608 281.569 262.593 283.271 262.478C286.895 262.315 288.281 260.611 288.281 256.656C288.281 255.747 288.176 253.611 288.176 252.817C288.176 247.636 290.366 244.333 298.618 242.514C300.272 242.14 301.554 243.155 301.554 244.706C301.554 245.989 300.703 246.679 300.062 246.899C294.889 248.498 294.143 250.155 294.143 253.784C294.143 254.856 294.248 256.608 294.248 257.729C294.248 261.894 292.221 263.924 288.702 265.044C292.278 266.222 294.248 268.194 294.248 272.36C294.248 273.48 294.143 275.242 294.143 276.305C294.143 279.934 294.889 281.59 300.062 283.189C300.703 283.4 301.554 284.099 301.554 285.382C301.554 286.933 300.272 287.948 298.618 287.575C290.356 285.756 288.176 282.452 288.176 277.224V277.205Z" fill="#EBEBEB"/>
<path d="M319.406 252.807C319.406 253.611 319.301 255.747 319.301 256.647C319.301 260.592 320.735 262.306 324.369 262.468C326.023 262.574 327.037 263.589 327.037 265.035C327.037 266.481 326.023 267.486 324.369 267.591C320.745 267.697 319.301 269.458 319.301 273.356C319.301 274.265 319.406 276.401 319.406 277.195C319.406 282.423 317.217 285.736 308.964 287.546C307.31 287.92 306.029 286.905 306.029 285.353C306.029 284.07 306.88 283.381 307.578 283.161C312.694 281.562 313.44 279.905 313.44 276.276C313.44 275.204 313.334 273.451 313.334 272.331C313.334 268.166 315.362 266.136 318.88 265.015C315.304 263.838 313.334 261.865 313.334 257.7C313.334 256.58 313.44 254.818 313.44 253.755C313.44 250.126 312.694 248.469 307.578 246.87C306.889 246.66 306.029 245.961 306.029 244.678C306.029 243.126 307.31 242.111 308.964 242.485C317.226 244.295 319.406 247.608 319.406 252.788V252.807Z" fill="#EBEBEB"/>
<path d="M485.387 224.713H326.903V355.042H485.387V224.713Z" fill="white"/>
<path d="M485.989 355.655H326.31V224.119H485.989V355.655ZM327.506 354.449H484.785V225.316H327.506V354.449Z" fill="#EBEBEB"/>
<path d="M485.387 224.713H326.903V236.194H485.387V224.713Z" fill="#FF6600"/>
<path d="M485.989 236.797H326.31V224.119H485.989V236.797ZM327.506 235.6H484.785V225.326H327.506V235.6Z" fill="#EBEBEB"/>
<path d="M337.661 230.544C337.661 232.143 336.37 233.436 334.773 233.436C333.176 233.436 331.885 232.143 331.885 230.544C331.885 228.945 333.176 227.653 334.773 227.653C336.37 227.653 337.661 228.945 337.661 230.544Z" fill="#A6A6A6"/>
<path d="M349.451 230.544C349.451 232.143 348.16 233.436 346.563 233.436C344.966 233.436 343.675 232.143 343.675 230.544C343.675 228.945 344.966 227.653 346.563 227.653C348.16 227.653 349.451 228.945 349.451 230.544Z" fill="#EBEBEB"/>
<path d="M361.231 230.544C361.231 232.143 359.941 233.436 358.344 233.436C356.747 233.436 355.456 232.143 355.456 230.544C355.456 228.945 356.747 227.653 358.344 227.653C359.941 227.653 361.231 228.945 361.231 230.544Z" fill="white"/>
<path d="M345.33 259.031H339.2V261.272H345.33V259.031Z" fill="#EBEBEB"/>
<path d="M420.106 259.031H349.795V261.272H420.106V259.031Z" fill="#EBEBEB"/>
<path d="M435.511 259.031H423.873V261.272H435.511V259.031Z" fill="#FF6600"/>
<path d="M462.141 289.03H450.495V291.271H462.141V289.03Z" fill="#EBEBEB"/>
<path d="M458.173 259.031H438.045V261.272H458.173V259.031Z" fill="#A6A6A6"/>
<path d="M351.459 265.035H345.33V267.275H351.459V265.035Z" fill="#EBEBEB"/>
<path d="M401.909 265.035H355.771V267.275H401.909V265.035Z" fill="#A6A6A6"/>
<path d="M447.731 289.03H420.718V291.271H447.731V289.03Z" fill="#A6A6A6"/>
<path d="M393.867 283.036H349.795V285.277H393.867V283.036Z" fill="#A6A6A6"/>
<path d="M386.686 271.038H355.771V273.279H386.686V271.038Z" fill="#FF6600"/>
<path d="M443.447 277.032H431.657V279.273H443.447V277.032Z" fill="#A6A6A6"/>
<path d="M439.489 271.038H390.119V273.279H439.489V271.038Z" fill="#A6A6A6"/>
<path d="M408.727 289.03H349.795V291.271H408.727V289.03Z" fill="#FF6600"/>
<path d="M468.682 265.035H436.744V267.275H468.682V265.035Z" fill="#FF6600"/>
<path d="M434.21 265.035H404.806V267.275H434.21V265.035Z" fill="#EBEBEB"/>
<path d="M461.654 271.038H441.812V273.279H461.654V271.038Z" fill="#EBEBEB"/>
<path d="M351.459 271.038H345.33V273.279H351.459V271.038Z" fill="#EBEBEB"/>
<path d="M345.33 277.032H339.2V279.273H345.33V277.032Z" fill="#A6A6A6"/>
<path d="M386.017 277.032H349.795V279.273H386.017V277.032Z" fill="#EBEBEB"/>
<path d="M391.993 295.034H355.771V297.275H391.993V295.034Z" fill="#EBEBEB"/>
<path d="M450.858 301.038H423.319V303.278H450.858V301.038Z" fill="#FF6600"/>
<path d="M431.265 295.034H394.938V297.275H431.265V295.034Z" fill="#FF6600"/>
<path d="M420.154 301.038H388.532V303.278H420.154V301.038Z" fill="#EBEBEB"/>
<path d="M366.261 301.038H355.771V303.278H366.261V301.038Z" fill="#A6A6A6"/>
<path d="M435.511 283.036H396.363V285.277H435.511V283.036Z" fill="#EBEBEB"/>
<path d="M462.954 283.036H438.045V285.277H462.954V283.036Z" fill="#FF6600"/>
<path d="M428.808 277.032H389.708V279.273H428.808V277.032Z" fill="#FF6600"/>
<path d="M345.33 283.036H339.2V285.277H345.33V283.036Z" fill="#EBEBEB"/>
<path d="M345.33 289.03H339.2V291.271H345.33V289.03Z" fill="#EBEBEB"/>
<path d="M351.459 295.034H345.33V297.275H351.459V295.034Z" fill="#A6A6A6"/>
<path d="M351.459 301.038H345.33V303.278H351.459V301.038Z" fill="#EBEBEB"/>
<path d="M345.33 306.055H339.2V308.296H345.33V306.055Z" fill="#EBEBEB"/>
<path d="M420.106 306.055H349.795V308.296H420.106V306.055Z" fill="#EBEBEB"/>
<path d="M351.459 312.059H345.33V314.3H351.459V312.059Z" fill="#EBEBEB"/>
<path d="M401.909 312.059H355.771V314.3H401.909V312.059Z" fill="#A6A6A6"/>
<path d="M393.867 330.06H349.795V332.301H393.867V330.06Z" fill="#A6A6A6"/>
<path d="M386.686 318.063H355.771V320.303H386.686V318.063Z" fill="#FF6600"/>
<path d="M439.489 318.063H390.119V320.303H439.489V318.063Z" fill="#A6A6A6"/>
<path d="M408.727 336.055H349.795V338.295H408.727V336.055Z" fill="#FF6600"/>
<path d="M468.682 312.059H436.744V314.3H468.682V312.059Z" fill="#FF6600"/>
<path d="M434.21 312.059H404.806V314.3H434.21V312.059Z" fill="#EBEBEB"/>
<path d="M461.654 318.063H441.812V320.303H461.654V318.063Z" fill="#EBEBEB"/>
<path d="M351.459 318.063H345.33V320.303H351.459V318.063Z" fill="#EBEBEB"/>
<path d="M345.33 324.057H339.2V326.297H345.33V324.057Z" fill="#A6A6A6"/>
<path d="M386.017 324.057H349.795V326.297H386.017V324.057Z" fill="#EBEBEB"/>
<path d="M435.511 330.06H396.363V332.301H435.511V330.06Z" fill="#EBEBEB"/>
<path d="M428.808 324.057H389.708V326.297H428.808V324.057Z" fill="#FF6600"/>
<path d="M345.33 330.06H339.2V332.301H345.33V330.06Z" fill="#EBEBEB"/>
<path d="M342.987 253.133C343.197 253.353 343.197 253.678 342.987 253.889C342.882 253.994 342.748 254.042 342.614 254.042C342.47 254.042 342.337 253.994 342.231 253.889L339.869 251.486C339.869 251.486 339.831 251.457 339.831 251.438L339.803 251.419C339.783 251.39 339.783 251.38 339.774 251.352C339.755 251.352 339.745 251.323 339.745 251.313C339.745 251.294 339.745 251.275 339.726 251.265C339.726 251.237 339.707 251.237 339.707 251.227V251.17C339.707 251.17 339.707 251.141 339.707 251.122V251.083V251.026C339.707 251.026 339.726 250.997 339.726 250.988C339.726 250.959 339.726 250.949 339.745 250.921C339.745 250.921 339.745 250.921 339.745 250.901C339.764 250.873 339.774 250.844 339.783 250.825C339.783 250.825 339.783 250.806 339.803 250.806C339.803 250.787 339.831 250.767 339.85 250.748L342.212 248.345C342.423 248.144 342.767 248.144 342.968 248.345C343.178 248.556 343.178 248.891 342.968 249.101L340.979 251.112L342.968 253.123L342.987 253.133Z" fill="#FF6600"/>
<path d="M345.129 253.401L347.194 248.489C347.299 248.249 347.567 248.144 347.806 248.249C348.036 248.345 348.141 248.623 348.045 248.843L345.98 253.764C345.903 253.937 345.731 254.042 345.549 254.042C345.502 254.042 345.435 254.042 345.377 254.013C345.129 253.918 345.023 253.64 345.129 253.41V253.401Z" fill="#FF6600"/>
<path d="M352.109 251.419C352.09 251.438 352.071 251.457 352.052 251.476L349.69 253.879C349.585 253.985 349.441 254.033 349.307 254.033C349.164 254.033 349.04 253.985 348.934 253.879C348.724 253.669 348.724 253.343 348.934 253.123L350.923 251.112L348.934 249.101C348.724 248.891 348.724 248.556 348.934 248.345C349.135 248.144 349.48 248.144 349.69 248.345L352.052 250.748C352.052 250.748 352.09 250.787 352.109 250.806V250.825C352.128 250.854 352.138 250.873 352.147 250.901C352.147 250.901 352.147 250.901 352.147 250.921C352.147 250.949 352.147 250.959 352.176 250.997C352.176 250.997 352.176 250.997 352.176 251.026V251.083C352.176 251.083 352.176 251.112 352.176 251.122C352.176 251.122 352.176 251.15 352.176 251.16V251.227C352.176 251.227 352.176 251.227 352.176 251.246C352.157 251.275 352.157 251.304 352.147 251.323C352.147 251.323 352.147 251.323 352.147 251.352C352.147 251.371 352.119 251.39 352.109 251.428V251.419Z" fill="#FF6600"/>
<path d="M503.46 206.443H438.724V230.449H503.46V206.443Z" fill="#3A3A3A"/>
<path d="M448.066 223.42V212.773C448.066 212.217 448.496 211.777 449.06 211.777C449.624 211.777 450.064 212.208 450.064 212.773V217.101H454.731V212.773C454.731 212.217 455.161 211.777 455.725 211.777C456.289 211.777 456.729 212.208 456.729 212.773V223.42C456.729 223.976 456.28 224.416 455.725 224.416C455.171 224.416 454.731 223.985 454.731 223.42V219.092H450.064V223.42C450.064 223.976 449.615 224.416 449.06 224.416C448.506 224.416 448.066 223.985 448.066 223.42Z" fill="white"/>
<path d="M468.548 213.788H465.679V223.42C465.679 223.976 465.249 224.416 464.685 224.416C464.121 224.416 463.69 223.985 463.69 223.42V213.788H460.841C460.286 213.788 459.846 213.318 459.846 212.773C459.846 212.227 460.277 211.777 460.841 211.777H468.538C469.084 211.777 469.533 212.208 469.533 212.773C469.533 213.338 469.084 213.788 468.538 213.788H468.548Z" fill="white"/>
<path d="M483.36 212.773V223.42C483.36 223.966 482.891 224.416 482.346 224.416C481.801 224.416 481.352 223.966 481.352 223.42V215.827L478.76 219.437C478.56 219.705 478.273 219.849 477.948 219.849H477.909C477.584 219.849 477.278 219.705 477.078 219.437L474.496 215.827V223.42C474.496 223.966 474.046 224.416 473.492 224.416C472.937 224.416 472.497 223.966 472.497 223.42V212.773C472.497 212.227 472.947 211.777 473.492 211.777H473.549C473.836 211.777 474.161 211.92 474.343 212.189L477.929 217.168L481.514 212.189C481.715 211.92 482.002 211.777 482.327 211.777H482.346C482.882 211.796 483.36 212.227 483.36 212.773Z" fill="white"/>
<path d="M487.72 223.42V212.773C487.72 212.227 488.151 211.777 488.715 211.777C489.279 211.777 489.728 212.227 489.728 212.773V222.405H494.615C495.141 222.405 495.609 222.855 495.609 223.42C495.609 223.985 495.141 224.416 494.615 224.416H488.724C488.17 224.416 487.73 223.966 487.73 223.42H487.72Z" fill="white"/>
<path d="M330.47 298.146H277.122V322.151H330.47V298.146Z" fill="#3A3A3A"/>
<path d="M292.995 311.207H290.777V315.123C290.777 315.669 290.328 316.119 289.763 316.119C289.199 316.119 288.769 315.669 288.769 315.123V304.475C288.769 303.92 289.218 303.479 289.763 303.479H292.986C295.128 303.479 296.859 305.213 296.859 307.357C296.859 309.502 295.128 311.197 292.986 311.197L292.995 311.207ZM290.777 309.205H292.995C294.038 309.205 294.851 308.372 294.87 307.367C294.851 306.323 294.038 305.49 292.995 305.49H290.777V309.205Z" fill="white"/>
<path d="M299.278 315.123V304.475C299.278 303.92 299.708 303.479 300.272 303.479C300.837 303.479 301.286 303.91 301.286 304.475V308.803H305.952V304.475C305.952 303.92 306.383 303.479 306.947 303.479C307.511 303.479 307.951 303.91 307.951 304.475V315.123C307.951 315.678 307.501 316.119 306.947 316.119C306.392 316.119 305.952 315.688 305.952 315.123V310.795H301.286V315.123C301.286 315.678 300.837 316.119 300.272 316.119C299.708 316.119 299.278 315.688 299.278 315.123Z" fill="white"/>
<path d="M316.27 311.207H314.051V315.123C314.051 315.669 313.602 316.119 313.038 316.119C312.474 316.119 312.043 315.669 312.043 315.123V304.475C312.043 303.92 312.493 303.479 313.038 303.479H316.26C318.402 303.479 320.133 305.213 320.133 307.357C320.133 309.502 318.402 311.197 316.26 311.197L316.27 311.207ZM314.051 309.205H316.27C317.312 309.205 318.125 308.372 318.144 307.367C318.125 306.323 317.312 305.49 316.27 305.49H314.051V309.205Z" fill="white"/>
<path d="M487.72 296.576L491.765 306.371L487.72 308.047L483.656 298.184L476.972 303.374V275.807L496.25 295.302L487.72 296.576Z" fill="#3A3A3A"/>
<path d="M476.972 272.8C476.781 272.341 476.733 271.871 476.724 271.412C476.724 270.952 476.772 270.483 476.972 270.023C477.164 270.483 477.211 270.952 477.221 271.412C477.221 271.871 477.173 272.341 476.972 272.8Z" fill="#3A3A3A"/>
<path d="M474.582 273.786C474.123 273.595 473.759 273.298 473.434 272.982C473.109 272.647 472.813 272.293 472.631 271.833C473.09 272.025 473.453 272.321 473.779 272.637C474.104 272.973 474.391 273.327 474.582 273.786Z" fill="#3A3A3A"/>
<path d="M473.597 276.171C473.138 276.362 472.669 276.41 472.21 276.42C471.751 276.42 471.283 276.372 470.824 276.171C471.283 275.979 471.751 275.931 472.21 275.922C472.669 275.922 473.138 275.97 473.597 276.171Z" fill="#3A3A3A"/>
<path d="M474.582 278.565C474.391 279.024 474.094 279.388 473.779 279.714C473.444 280.039 473.09 280.336 472.631 280.518C472.822 280.058 473.119 279.694 473.434 279.369C473.769 279.043 474.123 278.756 474.582 278.565Z" fill="#3A3A3A"/>
<path d="M480.348 276.171C480.807 275.979 481.275 275.931 481.734 275.922C482.193 275.922 482.662 275.97 483.121 276.171C482.662 276.362 482.193 276.41 481.734 276.42C481.275 276.42 480.807 276.372 480.348 276.171Z" fill="#3A3A3A"/>
<path d="M479.353 273.786C479.545 273.327 479.841 272.963 480.157 272.637C480.491 272.312 480.845 272.015 481.304 271.833C481.113 272.293 480.816 272.657 480.501 272.982C480.166 273.308 479.812 273.595 479.353 273.786Z" fill="#3A3A3A"/>
<path d="M439.259 171.283L471.311 134.38L439.029 110.901L464.36 95.9732C464.36 95.9732 504.091 120.151 503.584 134.667C503.115 147.881 453.038 181.308 453.038 181.308L439.259 171.292V171.283Z" fill="#8E6E5F"/>
<path d="M414.11 255.105C409.234 263.139 401.909 269.765 392.634 273.719C381.216 278.584 368.575 278.708 357.062 274.055C345.549 269.411 336.532 260.544 331.675 249.111C321.644 225.498 332.669 198.113 356.249 188.068C367.676 183.204 380.308 183.08 391.821 187.733C403.334 192.377 412.351 201.244 417.208 212.677C423.29 227.002 421.626 242.724 414.11 255.105ZM337.431 208.311C330.412 219.868 328.863 234.528 334.543 247.895C339.076 258.571 347.49 266.835 358.229 271.172C368.967 275.51 380.757 275.395 391.419 270.856C402.081 266.318 410.333 257.891 414.665 247.138C418.997 236.385 418.882 224.579 414.349 213.903C409.817 203.226 401.402 194.963 390.664 190.625C379.925 186.287 368.135 186.402 357.473 190.941C348.82 194.627 341.983 200.813 337.431 208.311Z" fill="#FF6600"/>
<g opacity="0.3">
<path d="M414.11 255.105C409.234 263.139 401.909 269.765 392.634 273.719C381.216 278.584 368.575 278.708 357.062 274.055C345.549 269.411 336.532 260.544 331.675 249.111C321.644 225.498 332.669 198.113 356.249 188.068C367.676 183.204 380.308 183.08 391.821 187.733C403.334 192.377 412.351 201.244 417.208 212.677C423.29 227.002 421.626 242.724 414.11 255.105ZM337.431 208.311C330.412 219.868 328.863 234.528 334.543 247.895C339.076 258.571 347.49 266.835 358.229 271.172C368.967 275.51 380.757 275.395 391.419 270.856C402.081 266.318 410.333 257.891 414.665 247.138C418.997 236.385 418.882 224.579 414.349 213.903C409.817 203.226 401.402 194.963 390.664 190.625C379.925 186.287 368.135 186.402 357.473 190.941C348.82 194.627 341.983 200.813 337.431 208.311Z" fill="black"/>
</g>
<path d="M412.227 253.066C407.35 261.099 400.025 267.725 390.75 271.68C379.323 276.544 366.691 276.669 355.178 272.015C343.666 267.371 334.648 258.504 329.791 247.071C319.76 223.459 330.785 196.073 354.366 186.029C365.793 181.165 378.424 181.04 389.937 185.694C401.45 190.338 410.467 199.204 415.325 210.637C421.406 224.962 419.742 240.685 412.227 253.066ZM335.547 206.261C328.529 217.819 326.98 232.479 332.659 245.846C337.192 256.522 345.607 264.786 356.345 269.123C367.083 273.461 378.874 273.346 389.535 268.807C400.197 264.269 408.45 255.842 412.781 245.089C417.113 234.336 416.998 222.53 412.466 211.853C407.933 201.177 399.518 192.913 388.78 188.576C378.042 184.238 366.251 184.353 355.59 188.892C346.936 192.578 340.099 198.764 335.547 206.261Z" fill="#FF6600"/>
<path d="M479.812 167.529L481.639 170.373C483.264 172.911 481.275 176.98 477.699 178.637L417.046 215.827L411.385 207.535L470.508 166.074C474.324 163.173 477.718 164.264 479.812 167.529Z" fill="#FF6600"/>
<path d="M374.456 190.185C374.456 190.185 374.188 190.213 373.691 190.204C373.194 190.223 372.457 190.137 371.511 190.223C369.617 190.271 366.883 190.606 363.622 191.506C361.987 191.946 360.256 192.598 358.42 193.373C356.622 194.216 354.71 195.154 352.836 196.38C350.952 197.577 349.04 198.956 347.223 200.574C345.396 202.182 343.608 203.963 342.011 205.993C340.405 208.014 339.057 210.149 337.947 212.303C336.857 214.477 336.025 216.679 335.375 218.824C334.142 223.124 333.711 227.174 333.807 230.564C333.883 233.953 334.333 236.673 334.782 238.521C334.964 239.449 335.213 240.148 335.327 240.637C335.452 241.125 335.519 241.374 335.499 241.384C335.48 241.384 335.394 241.144 335.232 240.666C335.088 240.187 334.801 239.497 334.601 238.569C334.094 236.73 333.587 233.992 333.463 230.583C333.329 227.174 333.721 223.066 334.945 218.709C335.586 216.545 336.417 214.305 337.517 212.102C338.636 209.91 340.003 207.746 341.629 205.697C343.245 203.638 345.062 201.838 346.907 200.219C348.753 198.592 350.684 197.203 352.597 196.006C354.5 194.781 356.441 193.852 358.257 193.009C360.113 192.243 361.872 191.602 363.526 191.18C366.825 190.309 369.598 190.022 371.501 190.041C372.457 189.993 373.194 190.108 373.691 190.118C374.188 190.156 374.456 190.175 374.446 190.194L374.456 190.185Z" fill="white"/>
<path d="M410.706 239.947C410.592 239.909 411.452 237.812 412.055 234.25C412.121 233.8 412.198 233.331 412.265 232.852C412.332 232.364 412.351 231.847 412.399 231.32C412.523 230.267 412.494 229.127 412.513 227.94C412.447 225.556 412.169 222.942 411.557 220.251C410.907 217.57 409.989 215.109 408.985 212.945C408.44 211.882 407.952 210.858 407.379 209.967C407.101 209.517 406.853 209.067 406.575 208.655C406.289 208.253 406.021 207.87 405.763 207.497C403.63 204.576 401.938 203.082 402.014 202.996C402.033 202.968 402.454 203.351 403.19 204.05C403.563 204.394 404.013 204.835 404.472 205.39C404.94 205.936 405.514 206.539 406.04 207.286C406.308 207.659 406.594 208.042 406.891 208.435C407.187 208.837 407.436 209.287 407.732 209.747C408.335 210.637 408.842 211.672 409.406 212.744C410.448 214.927 411.385 217.426 412.045 220.136C412.667 222.855 412.934 225.517 412.972 227.93C412.944 229.137 412.944 230.286 412.81 231.358C412.753 231.895 412.724 232.412 412.638 232.9C412.552 233.388 412.466 233.857 412.389 234.308C412.255 235.208 412.007 236.002 411.835 236.701C411.672 237.41 411.462 237.994 411.28 238.473C410.936 239.43 410.725 239.957 410.697 239.938L410.706 239.947Z" fill="white"/>
<path d="M381.981 206.98C382.077 207.085 375.814 212.945 368.011 220.079C360.199 227.212 353.792 232.919 353.706 232.814C353.61 232.708 359.864 226.848 367.676 219.705C375.489 212.572 381.886 206.865 381.981 206.97V206.98Z" fill="white"/>
<path d="M393.925 214.535C393.925 214.535 393.781 214.697 393.485 214.965C393.14 215.262 392.701 215.645 392.146 216.114C390.932 217.139 389.249 218.556 387.193 220.299C383.005 223.823 377.229 228.706 370.908 234.173C364.588 239.641 358.927 244.649 354.834 248.287C352.826 250.078 351.182 251.533 349.986 252.596C349.441 253.075 349.001 253.458 348.657 253.755C348.351 254.013 348.179 254.148 348.169 254.138C348.16 254.128 348.303 253.966 348.59 253.688C348.915 253.372 349.336 252.96 349.862 252.462C350.971 251.409 352.587 249.896 354.605 248.038C358.64 244.333 364.263 239.277 370.593 233.81C376.913 228.342 382.727 223.497 386.973 220.04C389.096 218.307 390.826 216.928 392.031 215.98C392.605 215.54 393.064 215.176 393.427 214.898C393.752 214.659 393.925 214.535 393.934 214.544L393.925 214.535Z" fill="white"/>
<g opacity="0.3">
<path d="M335.815 250.624L399.604 195.518C399.604 195.518 405.916 200.344 408.583 204.672L343.302 260.936C343.302 260.936 338.378 256.57 335.805 250.624H335.815Z" fill="white"/>
</g>
<g opacity="0.3">
<path d="M350.292 266.078L412.456 211.853C412.456 211.853 412.762 211.346 413.613 215.243L353.304 267.764C353.304 267.764 351.841 267.428 350.292 266.078Z" fill="white"/>
</g>
<path d="M439.259 171.283C439.259 171.283 420.546 191.918 420.135 192.684C419.714 193.459 414.674 205.371 415.918 207.784C417.161 210.197 426.532 218.671 426.532 218.671C426.532 218.671 429.878 217.225 426.713 211.557L423.548 205.898L425.25 200.181C425.25 200.181 427.775 207.43 429.238 209.019C430.701 210.609 436.495 213.328 437.949 211.93C439.402 210.542 439.622 208.828 439.622 208.828C439.622 208.828 443.591 211.997 446.392 206.97C446.392 206.97 449.921 206.424 451.432 203.954C452.952 201.483 452.751 196.696 452.751 196.696C452.751 196.696 451.575 194.407 449.318 195.92C447.062 197.433 445.981 200.344 445.981 200.344L444.346 198.161C444.346 198.161 445.034 193.105 446.842 189.639C447.98 187.456 455.323 182.687 456.194 178.905C456.93 175.697 450.514 173.571 447.234 173.753C446.737 173.782 446.249 173.878 445.79 174.05L439.259 171.283Z" fill="#8E6E5F"/>
<path d="M437.633 197.634C437.633 197.634 437.605 197.835 437.633 198.189C437.652 198.544 437.729 199.061 437.892 199.693C438.198 200.938 438.943 202.623 440.33 204.05C441.707 205.476 443.361 206.29 444.595 206.644C445.216 206.826 445.723 206.913 446.086 206.951C446.44 206.989 446.641 206.989 446.641 206.97C446.641 206.922 445.857 206.855 444.652 206.453C443.457 206.06 441.86 205.246 440.521 203.858C439.182 202.47 438.427 200.842 438.073 199.635C437.71 198.419 437.681 197.625 437.633 197.625V197.634Z" fill="#4F3935"/>
<path d="M431.341 197.002C431.341 197.002 431.322 197.213 431.341 197.596C431.341 197.787 431.37 198.027 431.408 198.295C431.447 198.563 431.485 198.879 431.571 199.214C431.705 199.894 431.944 200.679 432.288 201.522C432.642 202.364 433.101 203.255 433.684 204.136C434.277 205.007 434.946 205.764 435.587 206.405C436.247 207.037 436.888 207.545 437.471 207.918C437.748 208.119 438.025 208.263 438.264 208.406C438.494 208.55 438.704 208.655 438.886 208.732C439.23 208.895 439.431 208.971 439.441 208.962C439.469 208.914 438.695 208.56 437.586 207.765C437.031 207.372 436.409 206.855 435.769 206.223C435.138 205.582 434.497 204.835 433.914 203.983C433.34 203.121 432.69 202.135 432.326 201.311C431.982 200.488 431.915 199.827 431.753 199.166C431.427 197.845 431.38 196.993 431.322 197.002H431.341Z" fill="#4F3935"/>
<path d="M424.179 195.508C424.179 195.508 424.017 195.786 423.959 196.284C423.892 196.782 423.931 197.49 424.189 198.228C424.543 199.214 424.925 199.578 425.241 199.875C425.604 200.219 425.891 200.363 425.901 200.334C425.958 200.277 424.935 199.54 424.447 198.132C423.931 196.734 424.265 195.518 424.179 195.508Z" fill="#4F3935"/>
<path d="M488.686 132.177C488.638 132.254 487.663 131.565 485.884 130.923C484.125 130.272 481.495 129.764 478.665 130.243C475.825 130.684 473.606 132.264 472.249 133.537C470.872 134.83 470.183 135.806 470.116 135.749C470.088 135.73 470.231 135.471 470.537 135.031C470.843 134.59 471.321 133.978 472 133.279C473.32 131.909 475.595 130.205 478.579 129.745C481.524 129.257 484.24 129.841 486.009 130.588C486.898 130.961 487.586 131.344 488.026 131.651C488.476 131.948 488.696 132.149 488.676 132.177H488.686Z" fill="#3A2D28"/>
<path d="M391.716 46.8615C391.716 40.5897 391.697 34.27 390.626 28.0844C389.555 21.8987 387.384 15.7993 383.502 10.868C382.909 10.1211 378.386 5.29515 377.516 5.67816C376.894 5.94627 380.26 10.7243 380.117 11.385C378.74 17.7239 379.964 24.417 382.45 30.4112C384.936 36.4053 388.006 41.5281 391.716 46.8519" fill="#3A3A3A"/>
<path d="M384.936 23.8808C380.585 8.75182 368.174 -1.32139 353.19 3.45668L351.832 3.97375C338.158 9.23059 330.804 24.1106 334.935 38.1767C338.779 51.2661 343.197 65.677 345.884 72.4563C351.459 86.4937 366.385 83.2668 366.385 83.2668C366.414 83.2572 375.709 104.725 375.709 104.725L405.342 89.5099L384.936 23.8712V23.8808Z" fill="#8E6E5F"/>
<path d="M366.424 83.4008C366.424 83.4008 375.498 80.5091 382.679 70.9242C382.679 70.9242 383.1 84.1094 368.566 88.2363L366.433 83.4008H366.424Z" fill="#3A2D28"/>
<path d="M376.866 32.1251C380.021 40.7429 381.484 46.1242 377.439 46.9764C373.395 47.8286 363.957 50.9502 362.264 55.6421C360.572 60.3339 342.231 55.3835 340.434 64.0492C338.636 72.7148 342.91 72.3892 342.91 72.3892C342.91 72.3892 339.936 77.2343 345.081 79.3696C345.081 79.3696 346.4 85.6798 351.908 84.3296C352.243 87.8246 401.603 90.4578 387.919 37.2096L376.875 32.1251H376.866Z" fill="#3A3A3A"/>
<path d="M344.211 45.5976C344.584 46.6796 345.798 47.2541 346.926 46.8807C348.055 46.5168 348.676 45.3486 348.303 44.2666C347.93 43.1846 346.716 42.6101 345.588 42.9739C344.459 43.3378 343.838 44.506 344.211 45.588V45.5976Z" fill="#3A3A3A"/>
<path d="M341.199 43.4719C341.552 43.6346 342.642 41.9207 344.804 41.0972C346.955 40.245 348.973 40.7429 349.107 40.3886C349.173 40.2258 348.743 39.8524 347.854 39.613C346.984 39.3736 345.635 39.3258 344.287 39.8524C342.939 40.379 342.002 41.3078 341.543 42.0739C341.074 42.8399 341.026 43.4048 341.199 43.4719Z" fill="#3A3A3A"/>
<path d="M362.714 39.0959C363.086 40.1779 364.301 40.7524 365.429 40.379C366.558 40.0151 367.179 38.847 366.806 37.7649C366.433 36.6829 365.219 36.1084 364.09 36.4723C362.962 36.8361 362.341 38.0043 362.714 39.0863V39.0959Z" fill="#3A3A3A"/>
<path d="M360.849 36.1467C361.203 36.3095 362.293 34.5955 364.454 33.772C366.605 32.9198 368.623 33.4178 368.757 33.0635C368.824 32.9007 368.393 32.5273 367.504 32.2879C366.634 32.0485 365.286 32.0006 363.938 32.5273C362.589 33.0539 361.652 33.9827 361.193 34.7487C360.725 35.5148 360.677 36.0797 360.849 36.1467Z" fill="#3A3A3A"/>
<path d="M360.342 55.2495C360.304 55.125 358.87 55.4027 356.584 55.9676C356.01 56.1208 355.446 56.2166 355.207 55.8719C354.92 55.5272 354.93 54.8377 354.949 54.0909C354.949 52.5492 354.959 50.9406 354.968 49.2458C354.939 42.3707 354.691 36.8075 354.414 36.817C354.136 36.817 353.935 42.3899 353.964 49.2649C353.983 50.9502 354.002 52.5684 354.022 54.11C354.05 54.8186 353.964 55.6708 354.567 56.3889C354.873 56.7432 355.398 56.8868 355.781 56.8485C356.173 56.8198 356.489 56.7049 356.766 56.6187C359.003 55.891 360.371 55.3835 360.333 55.259L360.342 55.2495Z" fill="#3A3A3A"/>
<path d="M367.695 54.3781C367.083 54.3781 367.303 57.7008 363.995 60.2478C360.696 62.8044 356.364 62.6703 356.364 63.1395C356.326 63.3502 357.368 63.7332 359.185 63.6757C360.973 63.6279 363.545 63.015 365.563 61.4543C367.581 59.8935 368.355 57.9114 368.403 56.5421C368.46 55.1442 367.963 54.3494 367.686 54.3781H367.695Z" fill="white"/>
<path d="M356.488 31.091C357.158 31.608 359.854 29.6164 363.44 28.0173C366.997 26.3512 370.22 25.633 370.315 24.7713C370.344 24.3691 369.503 24.0052 368.03 23.9861C366.558 23.9669 364.463 24.35 362.321 25.3266C360.18 26.3033 358.487 27.663 357.502 28.8025C356.508 29.9515 356.192 30.842 356.498 31.091H356.488Z" fill="#3A3A3A"/>
<path d="M337.335 34.5668C338.11 35.1126 340.644 34.0497 343.809 33.5423C346.965 32.9486 349.738 33.1018 350.254 32.3262C350.474 31.9528 349.958 31.3687 348.686 30.9282C347.433 30.4877 345.425 30.2771 343.254 30.6505C341.084 31.0335 339.277 31.8953 338.273 32.7284C337.249 33.5614 336.982 34.2891 337.326 34.5572L337.335 34.5668Z" fill="#3A3A3A"/>
<path d="M387.795 34.7679C387.996 34.5764 396.372 28.1801 399.757 37.9469C403.143 47.7041 392.662 49.1021 392.548 48.8244C392.433 48.5467 387.795 34.7775 387.795 34.7775V34.7679Z" fill="#8E6E5F"/>
<path d="M394.24 44.0847C394.24 44.0847 394.45 44.1421 394.785 44.1804C395.11 44.2091 395.617 44.1325 396.067 43.7687C396.965 43.0314 397.262 41.0972 396.698 39.3162C396.411 38.4161 395.933 37.6405 395.378 37.0468C394.833 36.434 394.202 36.0989 393.647 36.185C393.093 36.2425 392.834 36.683 392.806 36.9989C392.768 37.3149 392.901 37.4873 392.854 37.5256C392.834 37.5639 392.586 37.4394 392.528 37.0085C392.5 36.7979 392.528 36.5298 392.701 36.2616C392.873 35.9935 393.179 35.7733 393.552 35.6871C394.317 35.4765 395.235 35.9361 395.847 36.5872C396.497 37.2287 397.061 38.1001 397.377 39.1055C397.998 41.0972 397.625 43.2803 396.363 44.1804C395.741 44.6017 395.101 44.5922 394.718 44.4581C394.336 44.324 394.202 44.123 394.231 44.0942L394.24 44.0847Z" fill="#3A2D28"/>
<path d="M335.796 19.8304C333.922 19.4953 336.934 12.7543 340.233 9.67105C345.205 5.01746 353.629 0.335137 359.558 0.047878C366.701 -0.306408 373.222 1.11074 378.501 5.94626C383.779 10.7818 387.346 17.293 389.449 24.1393C390.09 26.2267 390.606 28.4578 390.09 30.5835C389.459 33.2071 387.298 35.4573 388.417 38.4065C388.828 39.479 388.885 40.6854 388.417 41.7387C387.269 44.2474 384.477 43.1942 382.871 41.7387C379.428 38.6267 377.65 34.1359 375.976 29.8079C374.791 26.7342 373.586 23.584 373.452 20.2901C373.375 18.4995 373.624 16.6993 373.452 14.9087C373.28 13.1182 372.601 11.2605 371.109 10.2551C370.87 10.0924 370.497 9.91043 370.048 9.71893C366.462 8.22518 362.341 8.80927 359.281 11.2127C354.433 15.0236 346.018 21.1135 342.929 20.0794C338.492 18.5856 337.049 17.1111 337.049 17.1111L335.796 19.8209V19.8304Z" fill="#3A3A3A"/>
<path d="M321.051 110.643C321.051 110.643 319.655 106.698 324.388 101.393C329.112 96.0881 366.634 85.6989 366.634 85.6989C366.634 85.6989 380.27 101.163 392.07 90.611C400.656 82.9221 400.962 75.2523 400.962 75.2523H434.899L439.144 110.173L425.604 110.25L321.041 110.652L321.051 110.643Z" fill="#FF6600"/>
<path d="M428.741 75.2427C428.741 75.2427 437.595 73.4521 445.685 77.129C459.282 83.2955 482.891 102.925 482.891 102.925L454.176 126.538L434.287 110.193L428.75 75.2427H428.741Z" fill="#FF6600"/>
<path d="M441.076 115.918C441.076 115.918 440.942 115.871 440.712 115.727C440.483 115.583 440.139 115.382 439.718 115.085C438.876 114.501 437.681 113.601 436.343 112.337C435.004 111.073 433.483 109.484 432.087 107.473C430.691 105.491 429.391 103.03 428.922 100.215C427.928 94.6518 428.807 89.3566 430.596 86.101C431.485 84.4637 432.575 83.3816 433.388 82.7497C433.799 82.4337 434.162 82.2613 434.392 82.1177C434.631 81.9837 434.755 81.9166 434.765 81.9358C434.784 81.9741 434.306 82.2805 433.512 82.9029C432.747 83.5636 431.734 84.6552 430.911 86.2638C429.247 89.4715 428.444 94.6709 429.41 100.119C429.859 102.858 431.112 105.232 432.46 107.205C433.809 109.197 435.291 110.796 436.582 112.079C437.882 113.362 439.029 114.291 439.833 114.923C440.636 115.555 441.095 115.88 441.076 115.918Z" fill="#3A3A3A"/>
<path d="M434.277 110.192C434.277 110.327 410.907 110.537 382.077 110.652C353.237 110.767 329.867 110.748 329.867 110.614C329.867 110.48 353.237 110.269 382.077 110.154C410.907 110.039 434.277 110.058 434.277 110.192Z" fill="#3A3A3A"/>
<path d="M308.821 105.414C308.888 105.558 308.945 105.702 309.003 105.855C309.251 106.535 309.376 107.243 309.433 107.961C309.452 108.287 309.404 108.651 309.481 108.976C309.529 109.197 309.672 109.369 309.758 109.57C310.293 110.863 310.169 112.395 310.131 113.755C310.083 115.296 310.102 116.924 310.905 118.245C311.709 119.557 313.573 120.342 314.845 119.461C314.654 120.419 315.4 121.415 316.346 121.664C317.293 121.913 318.326 121.52 319.024 120.831C319.722 120.141 320.123 119.212 320.372 118.255C320.305 119.404 321.433 120.39 322.59 120.409C323.738 120.429 324.799 119.662 325.402 118.686C326.014 117.709 326.234 116.541 326.368 115.401C326.501 114.262 326.76 112.117 327.066 111.006C327.066 111.006 328.509 111.236 329.169 111.303C330.059 111.389 329.361 111.322 329.361 111.322C329.848 110.844 330.212 110.02 330.737 108.919C331.655 107.023 332.363 105.817 333.061 104.103C333.587 102.81 333.931 101.527 333.138 100.684C331.225 98.6639 327.477 102.772 327.477 102.772C326.951 101.345 322.59 101.106 321.749 103.011C321.405 101.958 321.539 101.355 320.688 100.646C319.837 99.9374 318.66 99.5735 317.599 99.8703C316.538 100.158 315.667 101.192 315.725 102.293C314.826 100.847 312.971 100.071 311.317 100.445C310.322 100.675 309.442 101.307 308.859 102.14C308.563 102.561 308.362 103.03 308.228 103.519C308.18 103.691 308.104 103.902 308.123 104.093C308.132 104.189 308.171 104.265 308.209 104.342C308.4 104.706 308.658 105.031 308.83 105.414H308.821Z" fill="#8E6E5F"/>
<path d="M304.221 102.628C303.275 102.59 302.242 102.791 301.611 103.499C300.865 104.342 300.712 106.008 300.798 107.128C302.108 107.377 302.797 107.425 304.107 107.674C304.384 107.722 304.614 107.655 304.843 107.818C305.445 108.249 305.35 109.704 305.598 110.403C306.019 111.619 307.578 112.222 308.792 111.772C309.997 111.322 310.781 110.039 310.839 108.747C310.896 107.454 310.332 106.2 309.5 105.204C308.199 103.662 306.239 102.695 304.221 102.628Z" fill="#8E6E5F"/>
<path d="M315.725 101.9C315.973 101.91 315.973 105.855 315.725 110.7C315.476 115.545 315.075 119.461 314.836 119.452C314.587 119.442 314.587 115.497 314.836 110.652C315.084 105.807 315.486 101.891 315.725 101.9Z" fill="#3A2D28"/>
<path d="M321.768 102.743C322.007 102.733 322.323 106.315 321.94 110.729C321.567 115.143 320.64 118.619 320.41 118.571C320.162 118.523 320.688 115.009 321.051 110.652C321.433 106.305 321.51 102.753 321.768 102.743Z" fill="#3A2D28"/>
<path d="M327.678 103.547C327.926 103.547 328.031 106.525 327.572 110.145C327.113 113.755 326.559 116.627 326.329 116.608C326.071 116.579 326.234 113.63 326.693 110.039C327.152 106.458 327.439 103.547 327.687 103.547H327.678Z" fill="#3A2D28"/>
<path d="M306.115 103.241C306.115 103.136 306.746 102.992 307.654 103.413C308.553 103.806 309.586 104.859 310.074 106.247C310.552 107.645 310.714 108.852 310.676 109.867C310.571 110.959 309.777 111.275 309.758 111.131C309.691 111.035 310.112 110.652 310.045 109.848C309.94 109.063 309.672 107.77 309.242 106.563C308.802 105.328 308.037 104.438 307.348 103.969C306.66 103.49 306.105 103.384 306.124 103.25L306.115 103.241Z" fill="#3A2D28"/>
<path d="M170.944 52.1566H102.316C97.1032 52.1566 92.8777 56.3879 92.8777 61.6074V130.329C92.8777 135.549 97.1032 139.78 102.316 139.78H170.944C176.156 139.78 180.381 135.549 180.381 130.329V61.6074C180.381 56.3879 176.156 52.1566 170.944 52.1566Z" fill="#FF6600"/>
<g opacity="0.3">
<path d="M170.944 52.1566H102.316C97.1032 52.1566 92.8777 56.3879 92.8777 61.6074V130.329C92.8777 135.549 97.1032 139.78 102.316 139.78H170.944C176.156 139.78 180.381 135.549 180.381 130.329V61.6074C180.381 56.3879 176.156 52.1566 170.944 52.1566Z" fill="black"/>
</g>
<path d="M158.111 52.1566H89.4831C84.2707 52.1566 80.0452 56.3879 80.0452 61.6074V130.329C80.0452 135.549 84.2707 139.78 89.4831 139.78H158.111C163.323 139.78 167.549 135.549 167.549 130.329V61.6074C167.549 56.3879 163.323 52.1566 158.111 52.1566Z" fill="#FF6600"/>
<g opacity="0.3">
<path d="M147.889 52.1566L80.0452 106.42V116.991L160.941 52.1566H147.889Z" fill="white"/>
</g>
<g opacity="0.3">
<path d="M80.1313 129.305L167.549 61.3872V80.4516L89.2632 139.78C84.1857 139.78 80.0739 135.634 80.1217 130.55V129.305H80.1313Z" fill="white"/>
</g>
<path d="M106.819 106.65C108.062 107.942 108.062 109.877 106.819 111.121C106.169 111.715 105.433 112.012 104.639 112.012C103.798 112.012 103.004 111.715 102.354 111.121L88.4121 96.9594C88.2591 96.9116 88.2113 96.8062 88.1635 96.6626C88.1157 96.6147 88.0105 96.5668 88.0105 96.5668C87.9149 96.4136 87.9149 96.3179 87.8575 96.1743C87.7619 96.1264 87.7045 96.0211 87.7045 95.9732C87.6567 95.8774 87.6567 95.7242 87.6089 95.6763C87.6089 95.5231 87.5133 95.4753 87.5133 95.4274V95.0827C87.5133 94.9869 87.4655 94.9295 87.4655 94.7858C87.4655 94.738 87.5133 94.5848 87.5133 94.5369V94.1922C87.5133 94.0964 87.6089 94.039 87.6089 93.9911C87.6567 93.8379 87.6567 93.7421 87.7045 93.5985C87.7045 93.5506 87.7523 93.5506 87.7523 93.5027C87.848 93.3495 87.9053 93.158 88.001 93.0527C88.001 93.0527 88.001 92.957 88.0966 92.957C88.1444 92.8612 88.2496 92.708 88.393 92.6122L102.335 78.4504C103.578 77.263 105.605 77.263 106.8 78.4504C108.043 79.6952 108.043 81.6773 106.8 82.922L95.0387 94.7954L106.8 106.669L106.819 106.65Z" fill="#EBEBEB"/>
<path d="M119.47 108.239L131.624 79.2738C132.217 77.8854 133.804 77.2343 135.248 77.8375C136.587 78.3833 137.227 80.0207 136.634 81.3613L124.481 110.374C124.031 111.418 122.989 112.012 121.947 112.012C121.65 112.012 121.249 111.964 120.952 111.811C119.518 111.265 118.868 109.628 119.461 108.23L119.47 108.239Z" fill="#EBEBEB"/>
<path d="M160.645 96.5572C160.645 96.5572 160.645 96.6051 160.597 96.6051C160.502 96.7009 160.396 96.8541 160.253 96.9498L146.311 111.112C145.718 111.705 144.877 112.002 144.083 112.002C143.242 112.002 142.496 111.705 141.846 111.112C140.603 109.867 140.603 107.933 141.846 106.64L153.607 94.7667L141.846 82.8933C140.603 81.6485 140.603 79.6664 141.846 78.4216C143.031 77.2343 145.068 77.2343 146.311 78.4216L160.253 92.5835C160.406 92.6792 160.502 92.8325 160.597 92.9282C160.645 92.9282 160.645 93.024 160.645 93.024C160.741 93.225 160.846 93.3208 160.894 93.474C160.894 93.5219 160.941 93.5219 160.941 93.5697C160.989 93.723 160.989 93.8187 161.094 94.0198C161.094 94.0677 161.142 94.0677 161.142 94.173V94.5177C161.142 94.5656 161.19 94.7188 161.19 94.7667C161.19 94.8145 161.142 94.9677 161.142 95.0156V95.4082C161.142 95.4561 161.094 95.4561 161.094 95.504C160.999 95.705 160.999 95.8487 160.941 95.954C160.941 96.0019 160.894 96.0019 160.894 96.1072C160.846 96.203 160.741 96.3562 160.645 96.5572Z" fill="#EBEBEB"/>
<path d="M536.201 319.145H441.171V379.852H536.201V319.145Z" fill="white"/>
<path d="M536.803 380.455H440.569V318.551H536.803V380.455ZM441.774 379.249H535.598V319.748H441.774V379.249Z" fill="#EBEBEB"/>
<path d="M536.201 319.145H441.171V330.625H536.201V319.145Z" fill="#FF6600"/>
<path d="M536.803 331.229H440.569V318.541H536.803V331.229ZM441.774 330.022H535.598V319.748H441.774V330.022Z" fill="#EBEBEB"/>
<path d="M451.938 324.966C451.938 326.565 450.648 327.858 449.051 327.858C447.454 327.858 446.163 326.565 446.163 324.966C446.163 323.367 447.454 322.075 449.051 322.075C450.648 322.075 451.938 323.367 451.938 324.966Z" fill="#A6A6A6"/>
<path d="M463.719 324.966C463.719 326.565 462.428 327.858 460.831 327.858C459.234 327.858 457.944 326.565 457.944 324.966C457.944 323.367 459.234 322.075 460.831 322.075C462.428 322.075 463.719 323.367 463.719 324.966Z" fill="#EBEBEB"/>
<path d="M475.5 324.966C475.5 326.565 474.209 327.858 472.612 327.858C471.015 327.858 469.724 326.565 469.724 324.966C469.724 323.367 471.015 322.075 472.612 322.075C474.209 322.075 475.5 323.367 475.5 324.966Z" fill="white"/>
<path d="M457.571 353.328C457.599 346.999 462.906 341.848 469.284 341.819C472.096 341.819 474.649 342.748 476.657 344.308C477.422 344.95 477.546 346.07 476.972 346.865C476.332 347.66 475.156 347.794 474.419 347.219C473.014 346.07 471.254 345.458 469.275 345.458C467.075 345.458 465.029 346.348 463.528 347.756C462.094 349.23 461.195 351.145 461.195 353.319C461.195 355.492 462.084 357.474 463.528 358.882C465.029 360.29 467.075 361.18 469.275 361.18C471.254 361.18 472.975 360.577 474.419 359.418C475.156 358.872 476.332 359.007 476.972 359.773C477.546 360.567 477.422 361.726 476.657 362.329C474.649 363.9 472.096 364.819 469.284 364.819C462.897 364.819 457.599 359.667 457.571 353.309V353.328Z" fill="#EBEBEB"/>
<path d="M482.48 359.275C483.054 358.576 484.106 358.48 484.813 359.054C486.219 360.203 488.648 361.544 490.914 361.515C492.511 361.515 493.945 361.037 494.901 360.328C495.858 359.629 496.278 358.825 496.278 358.03C496.278 357.618 496.183 357.331 495.992 357.005C495.8 356.689 495.513 356.364 495.035 356.048C494.108 355.445 492.549 354.899 490.665 354.544H490.598C489.097 354.257 487.692 353.874 486.477 353.3C485.263 352.725 484.211 351.921 483.513 350.81C483.035 350.044 482.777 349.144 482.777 348.186C482.777 346.271 483.857 344.605 485.33 343.514C486.831 342.422 488.782 341.819 490.857 341.819C493.926 341.819 496.192 343.322 497.818 344.375C498.554 344.883 498.774 345.908 498.267 346.645C497.789 347.411 496.766 347.641 496.001 347.124C494.376 346.032 492.807 345.075 490.857 345.075C489.422 345.075 488.141 345.525 487.28 346.157C486.42 346.798 486.066 347.497 486.066 348.167C486.066 348.55 486.133 348.809 486.286 349.058C486.448 349.316 486.735 349.604 487.147 349.891C487.978 350.465 489.413 350.982 491.134 351.298H491.201C492.826 351.614 494.328 352.036 495.609 352.639C496.919 353.281 498.067 354.114 498.803 355.291C499.281 356.057 499.568 357.015 499.568 358.011C499.568 360.06 498.42 361.812 496.824 362.971C495.255 364.12 493.18 364.79 490.914 364.79C487.462 364.761 484.565 363.028 482.738 361.592C482.04 361.017 481.945 359.964 482.48 359.256V359.275Z" fill="#EBEBEB"/>
<path d="M503.46 359.275C504.033 358.576 505.085 358.48 505.793 359.054C507.198 360.203 509.627 361.544 511.893 361.515C513.49 361.515 514.925 361.037 515.881 360.328C516.837 359.629 517.258 358.825 517.258 358.03C517.258 357.618 517.162 357.331 516.971 357.005C516.78 356.689 516.493 356.364 516.015 356.048C515.087 355.445 513.529 354.899 511.645 354.544H511.578C510.077 354.257 508.671 353.874 507.457 353.3C506.242 352.725 505.19 351.921 504.492 350.81C504.014 350.044 503.756 349.144 503.756 348.186C503.756 346.271 504.837 344.605 506.309 343.514C507.81 342.422 509.761 341.819 511.836 341.819C514.906 341.819 517.172 343.322 518.797 344.375C519.534 344.883 519.754 345.908 519.247 346.645C518.769 347.411 517.746 347.641 516.981 347.124C515.355 346.032 513.787 345.075 511.836 345.075C510.402 345.075 509.12 345.525 508.26 346.157C507.399 346.798 507.045 347.497 507.045 348.167C507.045 348.55 507.112 348.809 507.265 349.058C507.428 349.316 507.715 349.604 508.126 349.891C508.958 350.465 510.392 350.982 512.113 351.298H512.18C513.806 351.614 515.307 352.036 516.589 352.639C517.899 353.281 519.046 354.114 519.782 355.291C520.26 356.057 520.547 357.015 520.547 358.011C520.547 360.06 519.4 361.812 517.803 362.971C516.235 364.12 514.16 364.79 511.893 364.79C508.442 364.761 505.544 363.028 503.718 361.592C503.02 361.017 502.924 359.964 503.46 359.256V359.275Z" fill="#EBEBEB"/>
<path d="M540.618 359.332C543.267 360.481 545.208 362.932 546.193 365.652C547.178 368.371 547.255 371.34 546.929 374.212C546.298 379.766 543.152 385.377 539.758 389.81C535.091 385.731 534.011 378.607 533.695 374.959C533.189 369.195 535.78 358.47 540.628 359.332" fill="#FF6600"/>
<path d="M545.189 398.974C544.443 395.833 545.744 392.386 548.153 390.241C550.563 388.096 553.919 387.187 557.132 387.436C558.614 387.55 560.221 387.981 561.072 389.207C561.866 390.356 561.78 391.955 561.129 393.19C560.479 394.426 559.37 395.354 558.184 396.092C554.139 398.639 549.75 400.353 545.18 398.974" fill="#FF6600"/>
<path d="M539.203 416.008C539.203 416.008 539.241 415.597 539.366 414.869C539.509 414.065 539.7 413.03 539.93 411.786C540.446 409.21 541.106 405.514 543.105 401.933C545.074 398.361 547.838 395.728 550.171 394.416C551.328 393.746 552.332 393.344 553.049 393.143C553.403 393.028 553.69 392.98 553.881 392.932C554.072 392.894 554.178 392.874 554.178 392.894C554.206 392.98 552.562 393.286 550.324 394.665C548.077 396.015 545.409 398.62 543.468 402.134C541.508 405.648 540.8 409.286 540.217 411.853C539.93 413.145 539.7 414.189 539.528 414.917C539.347 415.635 539.232 416.027 539.203 416.027V416.008Z" fill="#3A3A3A"/>
<path d="M539.375 367.672C539.375 367.672 539.404 367.845 539.433 368.17C539.452 368.544 539.48 369.013 539.519 369.606C539.586 370.851 539.662 372.651 539.729 374.873C539.873 379.325 539.987 385.473 539.959 392.271C539.93 399.07 539.758 405.217 539.576 409.669C539.49 411.891 539.394 413.691 539.318 414.936C539.28 415.52 539.241 415.999 539.222 416.363C539.194 416.688 539.174 416.861 539.165 416.861C539.155 416.861 539.146 416.688 539.146 416.363C539.146 415.989 539.155 415.52 539.165 414.926C539.194 413.634 539.241 411.843 539.289 409.66C539.394 405.207 539.519 399.06 539.547 392.271C539.576 385.482 539.509 379.335 539.442 374.882C539.404 372.699 539.375 370.909 539.356 369.606C539.356 369.022 539.356 368.544 539.356 368.17C539.356 367.845 539.366 367.672 539.385 367.672H539.375Z" fill="#3A3A3A"/>
<path d="M537.109 402.363C536.048 395.642 531.525 389.571 525.395 386.622C523.837 385.875 521.8 385.386 520.509 386.545C519.228 387.713 519.515 389.801 520.136 391.419C522.756 398.15 529.775 402.9 536.994 402.814" fill="#FF6600"/>
<path d="M526.151 391.888C526.151 391.888 526.514 392.022 527.145 392.319C527.461 392.472 527.843 392.654 528.264 392.913C528.685 393.171 529.192 393.43 529.689 393.813C530.196 394.177 530.769 394.56 531.324 395.038C531.907 395.488 532.471 396.034 533.064 396.618C534.212 397.806 535.378 399.223 536.363 400.86C537.339 402.507 538.046 404.202 538.534 405.782C538.754 406.577 538.974 407.343 539.079 408.07C539.241 408.789 539.299 409.478 539.356 410.1C539.442 410.723 539.414 411.288 539.433 411.786C539.452 412.284 539.433 412.705 539.394 413.059C539.347 413.758 539.299 414.141 539.27 414.132C539.175 414.132 539.337 412.59 539.069 410.129C538.993 409.516 538.916 408.846 538.744 408.137C538.62 407.419 538.4 406.682 538.17 405.897C537.664 404.346 536.966 402.689 536.009 401.071C535.034 399.462 533.906 398.064 532.787 396.877C532.213 396.302 531.668 395.747 531.104 395.297C530.569 394.809 530.014 394.416 529.526 394.043C527.518 392.606 526.113 391.965 526.151 391.879V391.888Z" fill="#3A3A3A"/>
</g>
<defs>
<clipPath id="clip0_59_412">
<rect width="657" height="418" fill="white"/>
</clipPath>
</defs>
</svg>
