<svg width="190" height="74" viewBox="0 0 190 74" fill="none" xmlns="http://www.w3.org/2000/svg">
<path d="M0 0H73.542V73.542H0V0Z" fill="#FF6B00"/>
<path d="M13.967 54V19.17H18.74V54H13.967ZM24.375 54V19.17H31.943C34.523 19.17 36.5583 19.5713 38.049 20.374C39.5683 21.148 40.6433 22.3233 41.274 23.9C41.9334 25.4767 42.263 27.4403 42.263 29.791V42.605C42.263 45.0703 41.9334 47.1487 41.274 48.84C40.6433 50.5313 39.597 51.8213 38.135 52.71C36.7017 53.57 34.7667 54 32.33 54H24.375ZM29.234 50.517H31.986C33.7633 50.517 35.0247 50.173 35.77 49.485C36.5153 48.797 36.9597 47.7937 37.103 46.475C37.275 45.1563 37.361 43.5653 37.361 41.702V30.393C37.361 28.587 37.2463 27.125 37.017 26.007C36.7877 24.889 36.286 24.072 35.512 23.556C34.738 23.04 33.5197 22.782 31.857 22.782H29.234V50.517ZM55.2638 54.387C53.2571 54.387 51.5801 53.957 50.2328 53.097C48.9141 52.237 47.9108 51.0473 47.2228 49.528C46.5348 48.0087 46.1335 46.2457 46.0188 44.239L50.3188 43.078C50.4048 44.3107 50.5911 45.5003 50.8778 46.647C51.1931 47.7937 51.6948 48.7397 52.3828 49.485C53.0708 50.2017 54.0311 50.56 55.2638 50.56C56.5251 50.56 57.4711 50.216 58.1018 49.528C58.7611 48.8113 59.0908 47.7937 59.0908 46.475C59.0908 44.8983 58.7325 43.637 58.0158 42.691C57.2991 41.7163 56.3961 40.7417 55.3068 39.767L49.4588 34.607C48.3121 33.6037 47.4665 32.5143 46.9218 31.339C46.3771 30.135 46.1048 28.6587 46.1048 26.91C46.1048 24.3587 46.8358 22.3807 48.2978 20.976C49.7598 19.5713 51.7521 18.869 54.2748 18.869C55.6508 18.869 56.8548 19.0553 57.8868 19.428C58.9475 19.772 59.8218 20.3167 60.5098 21.062C61.2265 21.8073 61.7855 22.7533 62.1868 23.9C62.6168 25.018 62.9035 26.3367 63.0468 27.856L58.9188 28.974C58.8328 27.8273 58.6608 26.781 58.4028 25.835C58.1448 24.8603 57.6861 24.0863 57.0268 23.513C56.3961 22.911 55.4788 22.61 54.2748 22.61C53.0708 22.61 52.1248 22.9397 51.4368 23.599C50.7775 24.2297 50.4478 25.1757 50.4478 26.437C50.4478 27.4977 50.6198 28.372 50.9638 29.06C51.3365 29.748 51.9241 30.4503 52.7268 31.167L58.6178 36.327C59.9365 37.4737 61.0975 38.8497 62.1008 40.455C63.1041 42.0317 63.6058 43.9093 63.6058 46.088C63.6058 47.808 63.2475 49.2987 62.5308 50.56C61.8141 51.7927 60.8251 52.7387 59.5638 53.398C58.3311 54.0573 56.8978 54.387 55.2638 54.387ZM66.773 54V48.883H71.374V54H66.773Z" fill="white"/>
<path d="M75.3535 54V19.17H82.9215C85.5015 19.17 87.5369 19.5713 89.0275 20.374C90.5469 21.148 91.6219 22.3233 92.2525 23.9C92.9119 25.4767 93.2415 27.4403 93.2415 29.791V42.605C93.2415 45.0703 92.9119 47.1487 92.2525 48.84C91.6219 50.5313 90.5755 51.8213 89.1135 52.71C87.6802 53.57 85.7452 54 83.3085 54H75.3535ZM80.2125 50.517H82.9645C84.7419 50.517 86.0032 50.173 86.7485 49.485C87.4939 48.797 87.9382 47.7937 88.0815 46.475C88.2535 45.1563 88.3395 43.5653 88.3395 41.702V30.393C88.3395 28.587 88.2249 27.125 87.9955 26.007C87.7662 24.889 87.2645 24.072 86.4905 23.556C85.7165 23.04 84.4982 22.782 82.8355 22.782H80.2125V50.517ZM98.0293 54V19.17H111.531V22.782H102.888V34.306H109.897V37.746H102.888V50.517H111.617V54H98.0293ZM123.753 54.387C121.746 54.387 120.069 53.957 118.722 53.097C117.403 52.237 116.4 51.0473 115.712 49.528C115.024 48.0087 114.623 46.2457 114.508 44.239L118.808 43.078C118.894 44.3107 119.08 45.5003 119.367 46.647C119.682 47.7937 120.184 48.7397 120.872 49.485C121.56 50.2017 122.52 50.56 123.753 50.56C125.014 50.56 125.96 50.216 126.591 49.528C127.25 48.8113 127.58 47.7937 127.58 46.475C127.58 44.8983 127.222 43.637 126.505 42.691C125.788 41.7163 124.885 40.7417 123.796 39.767L117.948 34.607C116.801 33.6037 115.956 32.5143 115.411 31.339C114.866 30.135 114.594 28.6587 114.594 26.91C114.594 24.3587 115.325 22.3807 116.787 20.976C118.249 19.5713 120.241 18.869 122.764 18.869C124.14 18.869 125.344 19.0553 126.376 19.428C127.437 19.772 128.311 20.3167 128.999 21.062C129.716 21.8073 130.275 22.7533 130.676 23.9C131.106 25.018 131.393 26.3367 131.536 27.856L127.408 28.974C127.322 27.8273 127.15 26.781 126.892 25.835C126.634 24.8603 126.175 24.0863 125.516 23.513C124.885 22.911 123.968 22.61 122.764 22.61C121.56 22.61 120.614 22.9397 119.926 23.599C119.267 24.2297 118.937 25.1757 118.937 26.437C118.937 27.4977 119.109 28.372 119.453 29.06C119.826 29.748 120.413 30.4503 121.216 31.167L127.107 36.327C128.426 37.4737 129.587 38.8497 130.59 40.455C131.593 42.0317 132.095 43.9093 132.095 46.088C132.095 47.808 131.737 49.2987 131.02 50.56C130.303 51.7927 129.314 52.7387 128.053 53.398C126.82 54.0573 125.387 54.387 123.753 54.387ZM136.122 54V19.17H140.895V54H136.122ZM154.829 54.43C152.651 54.43 150.902 53.9713 149.583 53.054C148.293 52.108 147.347 50.7463 146.745 48.969C146.172 47.1917 145.885 45.056 145.885 42.562V30.909C145.885 28.3577 146.143 26.1933 146.659 24.416C147.204 22.61 148.15 21.234 149.497 20.288C150.873 19.342 152.78 18.869 155.216 18.869C157.395 18.869 159.144 19.2417 160.462 19.987C161.81 20.7037 162.784 21.8217 163.386 23.341C163.988 24.8317 164.289 26.7237 164.289 29.017V30.307H159.731V29.232C159.731 27.7127 159.631 26.48 159.43 25.534C159.23 24.5593 158.814 23.8427 158.183 23.384C157.581 22.8967 156.621 22.653 155.302 22.653C153.869 22.653 152.823 22.9827 152.163 23.642C151.533 24.3013 151.131 25.2043 150.959 26.351C150.816 27.469 150.744 28.7447 150.744 30.178V43.078C150.744 44.7407 150.859 46.131 151.088 47.249C151.346 48.367 151.819 49.1983 152.507 49.743C153.195 50.2877 154.17 50.56 155.431 50.56C156.693 50.56 157.667 50.259 158.355 49.657C159.043 49.055 159.516 48.1663 159.774 46.991C160.032 45.8157 160.161 44.3537 160.161 42.605V40.197H155.732V36.757H164.547V54H161.494L161.021 50.001C160.563 51.291 159.846 52.3517 158.871 53.183C157.897 54.0143 156.549 54.43 154.829 54.43ZM169.542 54V19.17H172.853L182.743 42.304V19.17H186.785V54H183.689L173.67 30.221V54H169.542Z" fill="#1E1E1E"/>
</svg>
