<svg width="147" height="50" viewBox="0 0 147 50" fill="none" xmlns="http://www.w3.org/2000/svg">
<path d="M1.475 42V6.187H0.59L1.18 0.699997H7.08V42H1.475ZM15.3783 42C13.5689 42 12.1136 41.4887 11.0123 40.466C9.95026 39.404 9.41926 38.0863 9.41926 36.513V17.987C9.41926 16.3743 9.95026 15.0567 11.0123 14.034C12.1136 13.0113 13.5689 12.5 15.3783 12.5H15.6143C16.6763 12.5 17.6203 12.7557 18.4463 13.267V6.187H17.0303L17.6203 0.699997H24.0513V36.513H24.8773L25.4673 42H18.4463V39.699L16.9713 42H15.3783ZM15.3193 17.987C15.1226 17.987 15.0243 18.0853 15.0243 18.282V36.218C15.0243 36.4147 15.1226 36.513 15.3193 36.513H18.4463V17.987H15.3193ZM32.828 30.2V36.454C32.828 36.6507 32.9263 36.749 33.123 36.749H35.483C35.6796 36.749 35.778 36.6507 35.778 36.454V25.834L31.117 23.769C30.763 23.651 30.2713 23.4543 29.642 23.179C29.0126 22.8643 28.4423 22.412 27.931 21.822C27.459 21.232 27.223 20.4257 27.223 19.403V5.951C27.223 4.299 27.7343 2.98133 28.757 1.998C29.7796 0.97533 31.117 0.463997 32.769 0.463997H35.837C37.489 0.463997 38.8263 0.97533 39.849 1.998C40.8716 2.98133 41.383 4.299 41.383 5.951V14.683L35.778 14.211V6.246C35.778 6.04933 35.6796 5.951 35.483 5.951H33.123C32.9263 5.951 32.828 6.04933 32.828 6.246V18.577L37.489 20.642C37.843 20.7993 38.3346 21.0157 38.964 21.291C39.5933 21.5663 40.144 21.999 40.616 22.589C41.1273 23.179 41.383 23.9853 41.383 25.008V36.749C41.383 38.401 40.8716 39.7383 39.849 40.761C38.8263 41.7443 37.489 42.236 35.837 42.236H32.769C31.117 42.236 29.7796 41.7443 28.757 40.761C27.7343 39.7383 27.223 38.401 27.223 36.749V30.2H32.828ZM69.7007 36.513C69.7007 38.165 69.1893 39.5023 68.1667 40.525C67.144 41.5083 65.8067 42 64.1547 42H54.3607V6.187H53.4757L54.0657 0.699997H64.1547C65.8067 0.699997 67.144 1.21133 68.1667 2.234C69.1893 3.21733 69.7007 4.535 69.7007 6.187V36.513ZM63.8007 6.187H59.9657V36.513H63.8007C63.9973 36.513 64.0957 36.4147 64.0957 36.218V6.482C64.0957 6.28533 63.9973 6.187 63.8007 6.187ZM72.0491 36.749V17.751C72.0491 16.099 72.5605 14.7813 73.5831 13.798C74.6058 12.7753 75.9431 12.264 77.5951 12.264H81.2531C82.9051 12.264 84.2425 12.7753 85.2651 13.798C86.2878 14.7813 86.7991 16.099 86.7991 17.751V25.008H81.1941V18.046C81.1941 17.8493 81.0958 17.751 80.8991 17.751H77.9491C77.7525 17.751 77.6541 17.8493 77.6541 18.046V25.008H86.7991V30.495H77.6541V36.454C77.6541 36.6507 77.7525 36.749 77.9491 36.749H80.8991C81.0958 36.749 81.1941 36.6703 81.1941 36.513V33.268H86.7991V36.749C86.7991 38.401 86.2878 39.7383 85.2651 40.761C84.2425 41.7443 82.9051 42.236 81.2531 42.236H77.5951C75.9431 42.236 74.6058 41.7443 73.5831 40.761C72.5605 39.7383 72.0491 38.401 72.0491 36.749ZM89.1614 32.737L94.7664 33.327V36.218C94.7664 36.4147 94.8648 36.513 95.0614 36.513H97.4214C97.6181 36.513 97.7164 36.4147 97.7164 36.218V30.731L92.4654 28.489C91.8361 28.2137 91.1281 27.781 90.3414 27.191C89.5548 26.601 89.1614 25.6373 89.1614 24.3V17.751C89.1614 16.099 89.6728 14.7813 90.6954 13.798C91.7181 12.7753 93.0554 12.264 94.7074 12.264H97.7754C99.4274 12.264 100.765 12.7753 101.787 13.798C102.81 14.7813 103.321 16.099 103.321 17.751V21.527L97.7164 20.937V18.046C97.7164 17.8493 97.6181 17.751 97.4214 17.751H95.0614C94.8648 17.751 94.7664 17.8493 94.7664 18.046V23.533L100.017 25.775C100.647 26.0503 101.355 26.483 102.141 27.073C102.928 27.663 103.321 28.6267 103.321 29.964V36.513C103.321 38.165 102.81 39.5023 101.787 40.525C100.765 41.5083 99.4274 42 97.7754 42H94.7074C93.0554 42 91.7181 41.5083 90.6954 40.525C89.6728 39.5023 89.1614 38.165 89.1614 36.513V32.737ZM111.008 4.653L111.598 10.14H105.993V4.653H111.008ZM111.598 12.5V42H105.993V17.987H105.108L105.698 12.5H111.598ZM119.24 43.18V44.478C119.24 44.6747 119.338 44.773 119.535 44.773H122.367C122.564 44.773 122.662 44.6747 122.662 44.478V39.699L121.187 42H119.594C117.785 42 116.329 41.4887 115.228 40.466C114.166 39.404 113.635 38.0863 113.635 36.513V17.987C113.635 16.3743 114.166 15.0567 115.228 14.034C116.329 13.0113 117.785 12.5 119.594 12.5H119.83C120.892 12.5 121.836 12.7557 122.662 13.267V12.5H128.267V44.36C128.267 46.012 127.756 47.3297 126.733 48.313C125.71 49.3357 124.373 49.847 122.721 49.847H119.181C117.529 49.847 116.192 49.3357 115.169 48.313C114.146 47.3297 113.635 46.012 113.635 44.36V43.18H119.24ZM119.535 17.987C119.338 17.987 119.24 18.0853 119.24 18.282V36.218C119.24 36.4147 119.338 36.513 119.535 36.513H122.662V17.987H119.535ZM130.838 42V17.987H129.422L130.012 12.5H136.443V14.801L137.918 12.5H139.511C141.32 12.5 142.756 13.0113 143.818 14.034C144.919 15.0567 145.47 16.3743 145.47 17.987V36.513H146.945L146.355 42H139.865V18.282C139.865 18.0853 139.767 17.987 139.57 17.987H136.443V42H130.838Z" fill="#3A3A3A"/>
</svg>
